<?xml version="1.0" standalone="no"?>
<!DOCTYPE svg PUBLIC "-//W3C//DTD SVG 20010904//EN"
 "http://www.w3.org/TR/2001/REC-SVG-20010904/DTD/svg10.dtd">
<svg version="1.0" xmlns="http://www.w3.org/2000/svg"
 viewBox="0 0 2600.000000 2600.000000"
 preserveAspectRatio="xMidYMid meet">
<metadata>
Created by potrace 1.15, written by Peter Selinger 2001-2017
</metadata>
<g transform="translate(0.000000,2600.000000) scale(0.100000,-0.100000)"
fill="#000000" stroke="none">
<path d="M17265 24794 c-195 -42 -368 -178 -455 -359 -70 -146 -70 -140 -70
-1017 0 -792 1 -817 36 -935 4 -16 2 -23 -8 -23 -12 0 -16 -44 -26 -234 -34
-648 -169 -1581 -413 -2856 -57 -299 -61 -316 -87 -335 -81 -60 -283 -236
-395 -344 -637 -617 -1009 -1327 -1077 -2056 -7 -74 -10 -2434 -10 -7232 0
-6145 2 -7132 14 -7196 53 -277 219 -501 516 -699 619 -412 1873 -651 3280
-625 1480 28 2557 293 3102 762 153 131 267 306 320 490 l23 80 0 7220 c0
7005 -1 7224 -19 7340 -87 562 -344 1098 -765 1600 -163 194 -448 469 -642
619 l-76 59 -42 221 c-204 1054 -350 1984 -405 2591 -15 164 -36 480 -36 558
0 27 -4 37 -16 37 -12 0 -15 6 -10 23 37 129 37 124 34 970 -3 767 -5 826 -22
877 -65 194 -187 334 -361 416 -142 66 -112 64 -1272 63 -884 -1 -1059 -3
-1118 -15z m1935 -1374 l0 -550 -810 0 -810 0 0 550 0 550 810 0 810 0 0 -550z
m14 -1432 c3 -24 12 -122 21 -218 59 -662 231 -1746 450 -2837 41 -205 75
-374 75 -377 0 -2 50 -36 112 -76 166 -109 344 -256 514 -425 408 -406 660
-833 761 -1290 l27 -120 3 -942 4 -943 -2791 0 -2791 0 4 938 c4 1032 0 968
68 1209 153 549 657 1189 1236 1570 109 72 112 75 122 121 171 799 373 1972
465 2702 28 216 76 677 76 722 0 4 369 8 819 8 l820 0 5 -42z m1966 -12008 l0
-3940 -2790 0 -2790 0 0 3940 0 3940 2790 0 2790 0 0 -3940z m0 -6211 c0
-1626 10 -1457 -91 -1533 -122 -92 -354 -193 -623 -271 -1250 -362 -3379 -318
-4426 92 -180 70 -305 139 -377 208 l-63 60 0 1438 0 1437 2790 0 2790 0 0
-1431z"/>
<path d="M8032 15949 c-161 -159 -290 -294 -286 -300 22 -36 549 -480 1440
-1214 318 -262 580 -480 582 -484 1 -4 -37 -57 -84 -117 -214 -269 -477 -669
-733 -1114 -62 -107 -116 -199 -121 -203 -4 -5 -43 -2 -86 7 -381 74 -785 35
-1158 -113 -43 -18 -79 -30 -81 -29 -1 2 -23 57 -48 123 -50 129 -141 300
-215 405 -340 481 -826 783 -1413 876 -146 23 -438 24 -587 1 -977 -151 -1690
-902 -1783 -1877 -25 -270 14 -580 111 -864 16 -50 30 -91 30 -92 0 -2 -44
-35 -98 -76 -517 -387 -822 -995 -822 -1638 0 -246 29 -430 106 -660 109 -327
281 -601 538 -852 l109 -107 -63 -96 c-152 -235 -253 -495 -305 -785 -22 -125
-31 -427 -16 -556 53 -448 234 -851 532 -1183 l68 -74 -24 -47 c-34 -67 -98
-258 -124 -367 -70 -300 -70 -646 0 -946 52 -220 161 -476 279 -657 92 -139
143 -203 255 -319 305 -315 688 -519 1133 -603 100 -19 151 -23 357 -23 257 0
304 5 509 56 371 92 696 277 967 548 172 173 287 334 396 554 24 48 49 87 56
87 7 0 66 -5 131 -11 222 -19 506 20 764 106 663 221 1181 784 1347 1462 15
60 28 115 31 123 3 13 24 14 131 12 216 -6 449 32 678 109 817 278 1372 1012
1411 1869 6 118 -7 351 -22 401 -3 11 10 20 45 33 27 9 101 44 164 76 616 311
1031 904 1121 1598 86 664 -177 1361 -683 1808 -247 220 -578 391 -902 469
-414 99 -849 65 -1258 -97 -40 -16 -75 -27 -76 -26 -1 2 -19 46 -40 98 -132
335 -347 630 -622 851 l-81 66 147 244 c268 445 493 785 648 976 l34 42 232
-191 c774 -640 1239 -1031 1500 -1261 l159 -140 42 44 c44 45 418 440 490 517
l41 44 -70 65 c-108 102 -578 503 -1005 859 -412 342 -645 535 -1805 1489
-796 655 -1384 1144 -1560 1299 -60 53 -112 96 -115 96 -3 -1 -137 -131 -298
-291z m-2352 -2989 c204 -25 433 -117 595 -237 256 -191 429 -477 481 -795
l17 -106 -65 -83 c-145 -187 -240 -357 -307 -556 -41 -120 -91 -332 -91 -387
0 -29 -58 -96 -84 -96 -7 0 -25 14 -42 31 -45 48 -170 150 -259 211 -395 273
-899 400 -1376 346 -57 -6 -119 -12 -138 -12 l-35 -1 -28 88 c-112 352 -57
745 148 1053 256 386 723 600 1184 544z m2815 -1241 c457 -54 843 -343 1015
-758 57 -138 82 -261 87 -432 8 -225 -23 -383 -112 -575 -101 -220 -297 -431
-503 -545 l-43 -24 -37 45 c-204 251 -494 468 -786 589 -242 100 -444 141
-746 150 l-215 6 -18 85 c-24 113 -26 334 -3 448 126 646 721 1087 1361 1011z
m2915 -1255 c439 -78 812 -400 954 -824 52 -157 69 -276 63 -450 -6 -160 -30
-273 -86 -415 -115 -286 -336 -518 -622 -655 l-84 -40 -17 23 c-9 12 -52 69
-95 127 -238 323 -597 584 -981 715 -164 56 -417 105 -538 105 -38 0 -42 2
-48 31 -11 58 -6 74 45 138 137 168 258 385 319 571 35 106 75 275 86 363 6
57 8 60 64 101 255 188 613 268 940 210z m-6455 -16 c374 -55 719 -302 893
-636 24 -45 49 -100 57 -123 l15 -42 -102 -106 c-274 -283 -443 -592 -527
-963 l-22 -96 -152 0 c-328 0 -632 -73 -933 -224 l-123 -61 -42 29 c-140 96
-287 274 -373 449 -94 189 -129 344 -129 555 1 336 125 635 362 871 287 286
666 408 1076 347z m2639 -1137 c384 -92 701 -353 856 -706 225 -514 82 -1117
-348 -1468 -338 -277 -818 -356 -1225 -203 -313 118 -575 367 -707 673 -115
269 -132 600 -44 871 158 484 593 827 1088 860 132 9 270 -1 380 -27z m2476
-1106 c333 -55 641 -252 825 -530 149 -226 215 -442 215 -707 0 -562 -381
-1048 -938 -1195 -86 -23 -117 -26 -281 -27 l-183 -1 -28 100 c-40 142 -119
330 -190 454 -102 177 -187 288 -340 442 l-145 147 58 88 c194 299 304 643
325 1020 l7 129 100 34 c55 18 134 39 175 46 105 18 288 18 400 0z m-4821
-573 l44 -7 28 -100 c70 -252 208 -517 376 -725 34 -41 113 -126 177 -189
l117 -113 -61 -92 c-33 -50 -84 -139 -113 -198 l-52 -108 -54 6 c-103 11 -376
5 -490 -11 -360 -51 -690 -194 -974 -423 -43 -34 -82 -60 -87 -57 -17 10 -117
169 -154 243 -142 283 -166 634 -66 934 151 451 542 778 1002 837 78 10 248
12 307 3z m3208 -1397 c178 -142 317 -335 394 -546 92 -251 93 -569 3 -821
-179 -496 -640 -828 -1153 -828 l-87 0 -12 153 c-21 275 -81 501 -197 743
-163 343 -418 630 -742 838 l-92 59 21 41 c26 52 119 185 147 210 20 18 23 18
79 2 202 -56 532 -82 728 -57 252 33 489 105 679 205 66 35 127 64 135 65 9 1
52 -28 97 -64z m-2712 -971 c483 -80 879 -454 996 -943 30 -123 37 -355 15
-484 -78 -457 -396 -830 -832 -976 -241 -81 -546 -83 -781 -5 -481 160 -808
576 -852 1083 -61 684 458 1291 1144 1340 113 8 196 4 310 -15z"/>
</g>
</svg>
