<?xml version="1.0" encoding="UTF-8" standalone="no"?>
<!-- Created with Inkscape (http://www.inkscape.org/) -->

<svg
   width="210mm"
   height="297mm"
   viewBox="0 0 210 297"
   version="1.1"
   id="svg1"
   sodipodi:docname="ii_oficer_ja.svg"
   inkscape:version="1.3.2 (091e20e, 2023-11-25)"
   xmlns:inkscape="http://www.inkscape.org/namespaces/inkscape"
   xmlns:sodipodi="http://sodipodi.sourceforge.net/DTD/sodipodi-0.dtd"
   xmlns="http://www.w3.org/2000/svg"
   xmlns:svg="http://www.w3.org/2000/svg">
  <sodipodi:namedview
     id="namedview1"
     pagecolor="#ffffff"
     bordercolor="#000000"
     borderopacity="0.25"
     inkscape:showpageshadow="2"
     inkscape:pageopacity="0.0"
     inkscape:pagecheckerboard="0"
     inkscape:deskcolor="#d1d1d1"
     inkscape:document-units="mm"
     inkscape:zoom="2.0047712"
     inkscape:cx="315.24795"
     inkscape:cy="169.0966"
     inkscape:window-width="1728"
     inkscape:window-height="1051"
     inkscape:window-x="0"
     inkscape:window-y="38"
     inkscape:window-maximized="0"
     inkscape:current-layer="layer1" />
  <defs
     id="defs1">
    <rect
       x="267.36218"
       y="322.23129"
       width="29.928602"
       height="96.270338"
       id="rect2" />
    <rect
       x="499.42613"
       y="784.81249"
       width="361.48939"
       height="404.29734"
       id="rect1" />
  </defs>
  <g
     inkscape:label="Layer 1"
     inkscape:groupmode="layer"
     id="layer1">
    <g
       id="g1"
       transform="matrix(0.06574186,0,0,0.06574185,26.42929,52.612118)"
       inkscape:label="g1">
      <g
         id="g42"
         transform="translate(-252.09129,-351.97652)"
         inkscape:label="g3">
        <g
           id="g28">
          <path
             class="cls-3"
             d="m 224.48,62.47 c 0.46,0.92 0.5,1.81 0.47,2.36 0.06,11.28 -0.12,22.89 -0.57,34.79 -0.16,4.18 -0.35,8.32 -0.57,12.42 -0.19,9.07 -0.38,18.15 -0.57,27.22 -1.11,3.05 -2.23,6.1 -3.34,9.14 -1.15,2.18 -3.47,5.8 -7.72,8.54 -0.65,0.42 -1.76,1.13 -3.31,1.74 -6.43,2.53 -12.91,0.36 -16.83,-0.95 -5.66,-1.89 -4.38,-2.87 -9.58,-4.41 0,0 -3.21,-0.95 -7.66,-4.25 -0.29,-0.21 -0.81,-0.63 -0.79,-1.17 0.02,-0.37 0.3,-0.73 0.63,-0.88 0.51,-0.23 1.09,0.05 1.39,0.19 3.65,1.74 4.39,1.86 4.85,1.89 0.49,0.03 1.35,0.1 2.14,-0.38 0.42,-0.25 0.59,-0.51 1.74,-1.67 0.35,-0.36 0.65,-0.66 0.85,-0.85 -9.62,-9.91 -19.24,-19.83 -28.87,-29.75 l -0.79,1.17 -0.91,3.24 -1.07,6.11 c 0.55,6.1 1.09,12.18 1.64,18.28 1.05,3.74 2.1,7.48 3.15,11.22 1.21,1.63 2.41,3.26 3.62,4.88 l 3,0.85 c 1.03,-0.1 1.75,-0.42 2.18,-0.66 0.77,-0.43 0.88,-0.76 0.91,-0.91 0.07,-0.33 -0.06,-0.63 -0.16,-0.79 l -0.51,-5.86 0.53,-1.17 c 1.6,1.53 3.88,3.59 6.81,5.8 1.36,1.03 6.72,5.01 15,8.95 3.2,1.52 5.42,2.36 9.83,4.03 9.36,3.55 14.05,5.32 17.65,5.54 2.09,0.13 3.76,0.01 5.67,1.13 1.79,1.04 2.4,2.35 5.67,5.42 0.13,0.12 0.92,1.11 2.27,2.01 1.39,0.93 2.13,0.97 2.4,0.96 1.03,0 1.78,-0.53 2.1,-0.75 0.92,-0.64 1.32,-1.51 1.47,-1.81 0.62,-1.22 1.85,-3.17 4.4,-6.5 0.53,-0.38 1.38,-0.91 2.49,-1.35 0.49,-0.2 0.9,-0.33 2.21,-0.69 0.81,-0.23 1.93,-0.53 3.28,-0.88 2.75,-0.78 5.5,-1.56 8.25,-2.33 3.93,-1.53 7.86,-3.06 11.78,-4.6 2.1,-1.7 3.3,-1.49 3.76,-1.34 0.75,0.26 1.6,1.04 1.87,1.3 0.8,0.74 1.17,1.4 1.83,1.39 0.34,0 0.6,-0.19 0.73,-0.28 1.38,-1 3.15,-5.86 3.37,-6.46 0.03,-0.03 0.82,-0.74 0.85,-0.77 0.05,-0.05 1.05,-0.95 1.1,-0.99 2.7,-1.54 5.4,-3.09 8.1,-4.63 0.96,-0.91 2.26,-2.2 3.72,-3.84 1.67,-1.87 2.39,-2.91 2.96,-2.71 0.92,0.31 0.71,3.56 0.69,3.85 -0.11,1.7 -0.52,2.08 -0.21,2.93 0.41,1.15 1.72,2.04 2.87,2.11 0.6,0.04 2.44,-0.06 5.04,-4.48 3.94,-6.7 4.36,-14.38 4.44,-18.94 0.1,-5.44 -0.17,-12.83 -1.7,-21.55 l -1.96,0.69 c -9.02,9.76 -18.05,19.52 -27.07,29.27 1.61,2.13 3.01,2.64 4,2.68 3.02,0.14 5.14,-3.81 7.19,-2.96 0.48,0.2 0.91,0.64 1.01,1.13 0.25,1.19 -1.4,2.48 -4,4.25 -5.65,3.87 -9.35,6.35 -10.78,5.17 -0.09,-0.08 -0.08,-0.09 -1.1,-2.05 -1.11,-2.13 -1.24,-2.34 -1.52,-2.4 -0.8,-0.16 -1.11,1.39 -3.4,3.47 -1.56,1.4 -2.76,2.49 -3.78,2.65 -0.14,0.02 -0.67,0.09 -0.91,0.47 -0.15,0.24 -0.13,0.52 -0.09,0.73 -1.71,0.31 -4.55,0.59 -7.88,-0.25 -3.3,-0.84 -5.52,-2.39 -6.49,-3.09 -1.49,-1.07 -2.5,-2.1 -3.18,-2.8 -1.85,-1.9 -2.99,-3.66 -3.53,-4.54 -1.24,-2.02 -1.92,-3.76 -2.23,-4.63 0,0 -0.42,-1.18 -0.73,-2.36 -1.02,-4.03 -0.48,-8.39 -0.44,-8.7 0.44,-3.65 0.37,-13.91 -0.47,-33.88 l -0.66,-10.94 -0.69,-21.93 c 0.13,-1.15 0.49,-2.34 1.42,-2.93 0.93,-0.59 2.04,-0.35 2.27,-0.31 1.93,0.34 11.9,-1.2 36.18,-6.18 2.15,0.23 4.19,-0.67 5.17,-2.33 0.86,-1.46 0.61,-3 0.51,-3.47 -0.36,-1.66 -1.52,-2.85 -2.68,-3.44 -0.59,-0.3 -1.06,-0.38 -1.76,-0.51 -1.85,-0.33 -2.83,0.02 -4.79,0.06 -1.4,0.03 -1.8,-0.13 -3.24,-0.22 -5.74,-0.37 -9.66,1.46 -10.43,0.09 -0.2,-0.37 0.05,-0.55 -0.25,-1.57 -0.19,-0.64 -0.47,-1.64 -1.17,-1.99 -0.45,-0.23 -0.91,-0.09 -2.46,0.57 -2.01,0.85 -3.02,1.28 -4.48,2.08 -1.67,0.92 -1.7,1.05 -2.27,1.32 -3.58,1.72 -8.09,-0.49 -8.79,-0.85 -2.93,-1.49 -6.62,-4.84 -5.89,-7.03 0.62,-1.86 3.77,-0.86 6.24,-3.72 1.76,-2.04 1.13,-3.66 2.96,-5.61 1.89,-2 4.95,-1.29 5.14,-2.43 0.09,-0.53 -0.46,-1.07 -0.95,-1.45 -0.53,-3.06 -2.18,-5.3 -4.1,-5.54 -1.31,-0.17 -2.47,0.63 -3.28,1.2 -1.87,1.3 -2.21,2.57 -3.78,4.79 -1.68,2.38 -3.35,4.74 -6.15,5.64 -2.16,0.7 -4.09,0.24 -5.1,0 -3.56,-0.85 -5.6,-3.2 -6.15,-3.88 -0.59,-0.74 -1.87,-2.36 -2.27,-4.85 -0.11,-0.68 -0.52,-3.77 1.42,-6.77 1.79,-2.76 4.42,-3.68 5.61,-4.1 1.38,-0.48 4,-1.4 6.68,-0.31 1.45,0.59 3.43,1.96 4.66,4.03 0.54,0.91 0.61,1.39 1.17,1.61 1.27,0.48 2.28,-1.53 5.14,-2.36 2.1,-0.61 3.02,0.05 3.47,-0.63 0.89,-1.37 -2.32,-5 -3.91,-6.55 -0.89,-0.87 -2.39,-2.31 -4.79,-3.53 -4.3,-2.2 -8.34,-2.05 -10.19,-1.96 -2.45,0.12 -7.23,0.35 -11.63,3.81 -5.57,4.39 -6.49,10.78 -6.75,12.54 -0.21,1.49 -0.63,4.59 0.57,8.25 1.1,3.4 3,5.48 4.66,7.31 2.34,2.57 4.1,4.51 6.93,5.04 1.64,0.31 2.56,-0.06 3,0.6 0.84,1.27 -1.18,4.75 -4.1,6.24 -2.21,1.13 -4.41,0.85 -5.39,0.66 -11.12,1.66 -22.23,3.32 -33.34,4.98 -0.57,0.06 -1.8,0.28 -2.96,1.2 -0.4,0.31 -1.26,1.02 -1.7,2.27 -0.42,1.21 -0.23,2.25 -0.09,2.87 0.13,0.6 0.44,2.03 1.74,3.18 1.2,1.07 2.53,1.29 3.06,1.35 12.79,-0.02 25.59,-0.04 38.38,-0.06 l 2.65,2.01 -0.02,0.03 z"
             id="path1"
             style="fill:#1e1e1c;stroke-width:0px" />
          <path
             class="cls-3"
             d="m 289.92,169.48 c -0.09,-0.87 -0.17,-1.74 -0.26,-2.61 -0.41,-0.48 -0.78,-0.86 -1.07,-1.16 -0.63,-0.62 -0.92,-0.82 -1.29,-0.91 -0.21,-0.05 -0.55,-0.13 -0.82,0.06 -0.23,0.16 -0.3,0.42 -0.31,0.52 0.02,2.89 0.03,5.78 0.05,8.67 0.06,0.18 0.17,0.44 0.39,0.68 0.66,0.73 1.69,0.66 1.88,0.64 0.81,-0.06 1.36,-0.51 1.57,-0.68 l 0.37,-0.3 c -0.16,-1.64 -0.33,-3.27 -0.49,-4.91"
             id="path2"
             style="fill:#1e1e1c;stroke-width:0px" />
          <path
             class="cls-3"
             d="m 284.65,163.25 c -0.36,-0.23 -0.71,-0.25 -1.03,-0.27 -0.38,-0.02 -0.7,-0.05 -1,0.09 -0.75,0.36 -0.8,1.51 -0.8,1.6 l -1.4,5.69 c 0.02,0.2 0.08,0.54 0.27,0.91 0.94,1.79 4.08,2.26 4.57,1.52 0.07,-0.1 0.08,-0.22 0.08,-0.3 -0.02,-2.86 -0.05,-5.71 -0.08,-8.56 -0.09,-0.17 -0.27,-0.46 -0.61,-0.67 z"
             id="path3"
             style="fill:#1e1e1c;stroke-width:0px" />
          <path
             class="cls-3"
             d="m 270.92,142.76 c -0.72,0.81 -1.48,1.63 -2.27,2.46 -1.35,1.41 -2.69,2.72 -4,3.94 l 0.79,3.56 c 0.05,0.12 0.22,0.55 0.69,0.82 0.48,0.28 0.95,0.21 1.07,0.19 0.52,-0.38 1.05,-0.75 1.57,-1.13 0.38,-0.16 0.94,-0.42 1.54,-0.85 0.34,-0.24 3.8,-2.73 3.28,-5.74 -0.08,-0.44 -0.28,-1.16 -0.95,-1.96 -0.16,-0.23 -0.44,-0.58 -0.88,-0.88 -0.32,-0.21 -0.62,-0.34 -0.85,-0.41 v 0 z"
             id="path4"
             style="fill:#1e1e1c;stroke-width:0px" />
          <path
             class="cls-3"
             d="m 265.28,135.86 c -0.24,0.15 -0.47,0.61 -0.13,2.21 -0.54,2.03 -1.4,3.3 -2.08,4.1 -0.88,1.02 -1.73,1.53 -1.83,2.52 -0.1,0.99 0.59,1.86 1.17,2.43 l 1.26,0.88 c 0.26,-0.08 0.61,-0.22 0.98,-0.47 0.53,-0.37 0.84,-0.8 1.01,-1.07 1.24,-1.43 2.48,-2.86 3.72,-4.28 0.12,-0.45 0.27,-1.24 0.09,-2.18 -0.51,-2.66 -3.37,-4.63 -4.19,-4.13 v 0 z"
             id="path5"
             style="fill:#1e1e1c;stroke-width:0px" />
          <path
             class="cls-3"
             d="m 259.01,132.36 1.79,0.79 c 0.85,0.28 1.51,0.62 1.96,0.88 0.89,0.52 1.35,0.8 1.61,1.35 0.32,0.7 0.12,1.43 0,1.76 l -1.42,3.12 c -1.03,0.66 -1.39,1.32 -1.52,1.83 -0.15,0.62 -0.03,1.27 -0.47,1.61 -0.23,0.17 -0.5,0.2 -0.69,0.19 -0.3,0.04 -0.93,0.08 -1.54,-0.28 -0.52,-0.31 -0.77,-0.75 -1.01,-1.2 -0.28,-0.51 -0.41,-0.98 -0.47,-1.29 0.59,-2.92 1.18,-5.84 1.76,-8.76 z"
             id="path6"
             style="fill:#1e1e1c;stroke-width:0px" />
          <path
             class="cls-3"
             d="m 252.42,131.69 c 0.81,0.01 1.62,0.02 2.43,0.03 l 2.52,0.31 c 0.19,0.18 0.48,0.5 0.66,0.98 0.35,0.92 0.06,1.76 -0.03,1.99 -0.69,1.56 -1.39,3.11 -2.08,4.66 -0.27,0.14 -1.46,0.74 -2.3,0.22 -0.51,-0.32 -0.67,-0.92 -0.75,-1.32 -0.51,-2.32 -0.47,-5.62 -0.44,-6.87 v 0 z"
             id="path7"
             style="fill:#1e1e1c;stroke-width:0px" />
          <path
             class="cls-3"
             d="m 246,130.81 c 1.02,-1.07 3.4,-0.26 3.59,-0.19 0.5,0.17 1.38,0.49 1.89,1.39 0.33,0.58 0.36,1.16 0.35,1.48 0.23,1.66 0.46,3.32 0.69,4.98 0.09,0.15 0.6,1.04 0.28,1.42 -0.3,0.37 -1.22,0.05 -1.89,-0.19 -0.93,-0.33 -1.62,-0.78 -2.05,-1.1 -0.32,-0.29 -0.79,-0.75 -1.26,-1.39 -1.33,-1.78 -2.84,-5.1 -1.61,-6.4 v 0 z"
             id="path8"
             style="fill:#1e1e1c;stroke-width:0px" />
          <path
             class="cls-3"
             d="m 242.34,137.62 c -0.23,-0.37 -0.21,-0.58 -0.38,-1.7 -0.57,-3.74 -1.37,-4.97 -0.75,-5.54 0.25,-0.24 0.83,-0.45 2.36,0.16 l 0.91,0.85 c 0.58,1.65 1.16,3.3 1.74,4.95 0.16,0.16 0.37,0.37 0.63,0.63 1.07,1.08 1.31,1.36 1.23,1.61 -0.03,0.1 -0.12,0.24 -0.47,0.35 -1.47,0.16 -4.28,0.27 -5.26,-1.29 v 0 z"
             id="path9"
             style="fill:#1e1e1c;stroke-width:0px" />
          <path
             class="cls-3"
             d="m 223.39,99.22 c -0.23,-0.09 -0.95,-0.16 -2.69,2.27 l -0.34,1.52 c 0.28,0.27 0.82,0.73 1.64,0.96 0.46,0.13 0.82,0.24 1.13,0.13 1.24,-0.48 1.29,-4.49 0.25,-4.88 v 0 z"
             id="path10"
             style="fill:#1e1e1c;stroke-width:0px" />
          <path
             class="cls-3"
             d="m 222.85,104.81 c -1.42,-1.48 -3.64,-1.04 -3.78,-1.01 -0.33,0.23 -0.79,0.57 -1.3,1.05 -2.08,1.93 -3.41,4.52 -2.86,5.13 0.1,0.12 0.42,0.33 0.81,0.39 0.19,0.03 0.34,0.03 0.45,0.02 l 5,1.05 1.64,-1.05 c 1.44,-1.8 1.36,-4.22 0.04,-5.59 v 0 z"
             id="path11"
             style="fill:#1e1e1c;stroke-width:0px" />
          <path
             class="cls-3"
             d="m 213.09,112.96 c 0.17,-0.42 0.68,-1.71 1.93,-2.1 0.44,-0.13 0.82,-0.12 1.09,-0.08 1.75,0.38 3.5,0.75 5.25,1.13 -0.02,0.86 -0.26,1.49 -0.42,1.85 -0.21,0.45 -0.85,1.81 -2.01,1.93 -0.45,0.05 -0.83,-0.1 -1.05,-0.21 -1.13,-0.04 -2.27,-0.08 -3.4,-0.13 l -1.47,0.55 c -0.13,-0.43 -0.44,-1.63 0.08,-2.94 z"
             id="path12"
             style="fill:#1e1e1c;stroke-width:0px" />
          <path
             class="cls-3"
             d="m 218.89,116.19 -3.76,-0.02 -2.65,0.8 c -0.64,0.73 -0.99,1.43 -1.2,1.96 -0.53,1.35 -0.92,3.69 0.17,4.49 0.27,0.2 0.57,0.26 0.74,0.27 l 2.98,-1.72 c 0.82,-0.36 1.64,-0.71 2.46,-1.07 l 1.62,-1.49 0.15,-2 -0.1,-0.91 -0.4,-0.31 v 0 z"
             id="path13"
             style="fill:#1e1e1c;stroke-width:0px" />
          <path
             class="cls-3"
             d="m 218.12,121.38 c -0.6,-0.15 -1.09,0.6 -2.44,1.35 -1.02,0.57 -1.96,0.82 -2.58,0.95 -0.38,0.24 -1.13,0.81 -1.62,1.83 -0.2,0.42 -0.59,1.27 -0.38,2.35 0.2,1.04 0.82,1.68 1.07,1.91 0.13,0.06 0.36,0.13 0.63,0.08 0.71,-0.11 1,-0.89 1.01,-0.92 l 1.74,-1.66 2.44,-1.64 1.28,-1.57 c -0.26,-2.05 -0.75,-2.57 -1.16,-2.67 v 0 z"
             id="path14"
             style="fill:#1e1e1c;stroke-width:0px" />
          <path
             class="cls-3"
             d="m 218.83,126.3 c -0.46,0 -0.55,0.29 -1.81,1.01 -0.77,0.44 -0.95,0.45 -1.6,0.88 -0.16,0.1 -0.61,0.41 -1.05,0.8 -0.91,0.8 -1.76,1.55 -1.87,2.5 -0.12,1.04 0.73,1.83 2.4,3.4 1.34,1.26 1.86,1.24 2.12,1.16 0.2,-0.06 0.42,-0.23 0.71,-0.8 0.29,-0.56 0.71,-1.6 0.67,-3.15 0.45,-0.99 0.91,-1.97 1.36,-2.96 l 0.63,-1.81 c -0.67,-0.87 -1.21,-1.03 -1.57,-1.03 h -0.01 z"
             id="path15"
             style="fill:#1e1e1c;stroke-width:0px" />
          <path
             class="cls-3"
             d="m 222.61,128.57 c -0.08,-0.04 -0.77,-0.38 -1.43,-0.13 -0.17,0.06 -0.6,0.28 -1.3,1.85 -0.23,0.52 -0.52,1.24 -0.75,2.14 l -0.88,4.16 c 0.23,0.21 0.6,0.49 1.09,0.71 1,0.46 2.29,0.61 3.09,0.27 2.5,-1.06 2.35,-7.9 0.19,-9.01 v 0 z"
             id="path16"
             style="fill:#1e1e1c;stroke-width:0px" />
          <path
             class="cls-3"
             d="m 241.36,93.85 c 1,0.61 2.3,0.05 2.49,-0.03 l 1.52,-0.69 1.86,-2.23 -0.88,-0.31 -2.05,-0.09 -2.27,-0.69 -1.1,-0.53 c -1.15,1.86 -0.71,3.9 0.44,4.6 v -0.02 z"
             id="path17"
             style="fill:#1e1e1c;stroke-width:0px" />
          <path
             class="cls-3"
             d="m 240.79,87.04 c -0.12,0.63 0.06,1.19 0.22,1.54 0.55,0.37 1.39,0.86 2.52,1.2 1.08,0.32 1.93,0.35 2.77,0.38 1.55,0.05 2.38,0.08 3.31,-0.35 0.45,-0.2 1.5,-0.77 2.3,-2.23 l -0.13,-0.57 c -1.69,-0.33 -3.38,-0.65 -5.07,-0.98 l -2.93,-1.35 c -1.57,0.21 -2.77,1.18 -3,2.36 v 0 z"
             id="path18"
             style="fill:#1e1e1c;stroke-width:0px" />
          <path
             class="cls-3"
             d="m 246.5,84.93 c 1.16,0.31 2.08,0.62 2.65,0.82 0.92,0.27 1.85,0.55 2.77,0.82 0.48,0.03 1.28,0.01 2.08,-0.44 0.7,-0.4 1.64,-1.27 1.54,-2.18 -0.01,-0.1 -0.05,-0.47 -0.31,-0.63 -0.36,-0.22 -0.85,0.12 -1.26,0.25 -0.55,0.19 -1.43,0.18 -2.87,-0.79 -0.34,-0.35 -1.36,-1.31 -3,-1.54 -1.04,-0.15 -1.9,0.06 -2.36,0.22 -0.41,0.24 -0.98,0.63 -1.54,1.23 -0.52,0.55 -0.78,0.82 -0.73,1.1 0.1,0.53 1.17,0.64 3.02,1.13 v 0 z"
             id="path19"
             style="fill:#1e1e1c;stroke-width:0px" />
          <path
             class="cls-3"
             d="m 257,79.54 c -0.35,-0.48 -0.67,-0.49 -1.54,-0.98 -1.79,-0.99 -1.75,-1.69 -2.8,-1.92 -0.99,-0.21 -1.86,0.23 -2.52,0.57 -1.25,0.64 -2.71,1.99 -2.4,2.77 0.06,0.16 0.31,0.58 1.67,0.66 1,0.47 2,0.95 3,1.42 l 1.86,0.85 c 0.13,0.07 0.85,0.42 1.7,0.13 0.91,-0.31 1.25,-1.13 1.32,-1.32 0.3,-0.8 0.1,-1.64 -0.28,-2.18 v 0 z"
             id="path20"
             style="fill:#1e1e1c;stroke-width:0px" />
          <path
             class="cls-3"
             d="m 253.94,75.79 c 0.26,0.71 1.02,1.2 1.89,1.32 l 2.11,2.05 1.39,0.51 c 0.44,-0.26 1.04,-0.68 1.64,-1.32 0.75,-0.81 1.81,-1.96 1.48,-3.06 -0.38,-1.24 -2.29,-1.56 -2.4,-1.57 l -2.58,-0.82 -1.7,-0.13 c -1.52,0.5 -2.22,1.98 -1.83,3.02 z"
             id="path21"
             style="fill:#1e1e1c;stroke-width:0px" />
          <path
             class="cls-3"
             d="m 260.71,68.32 c -1.38,-0.14 -1.86,-0.02 -2.23,0.16 -0.13,0.06 -1.21,0.57 -1.61,1.79 -0.05,0.14 -0.46,1.46 0.13,1.96 0.49,0.4 1.17,-0.16 2.23,-0.09 0.72,0.05 1.64,0.38 2.68,1.54 l 1.1,0.28 1.17,-0.66 c 0.3,-0.34 0.84,-1.03 1.04,-2.05 0.11,-0.54 0.19,-0.94 0.03,-1.35 -0.45,-1.17 -2.4,-1.36 -4.54,-1.57 v 0 z"
             id="path22"
             style="fill:#1e1e1c;stroke-width:0px" />
          <path
             class="cls-3"
             d="m 258.48,67.35 c 0.21,0.16 0.46,0.21 1.7,0.13 1.66,-0.11 1.87,-0.24 2.52,-0.25 2,-0.03 2.76,1.22 3.37,0.79 0.75,-0.52 -0.5,-2.28 0.44,-4.22 0.53,-1.1 1.46,-1.63 1.29,-1.92 -0.16,-0.27 -1.06,-0.03 -1.76,0.19 l -6.08,1.29 c -0.26,0.06 -1.11,0.28 -1.64,1.07 -0.64,0.96 -0.55,2.41 0.16,2.93 v -0.02 z"
             id="path23"
             style="fill:#1e1e1c;stroke-width:0px" />
          <path
             class="cls-3"
             d="m 263.83,61.49 c 1.72,-0.33 2.24,0.24 3.24,-0.41 0.2,-0.13 1.27,-0.85 1.2,-1.89 -0.03,-0.45 -0.26,-0.78 -0.41,-0.98 l -0.16,-2.36 -1.35,0.22 c -1.42,-0.03 -3.63,0.16 -5.64,1.42 -1.36,0.85 -1.62,1.57 -1.7,1.89 -0.28,1.1 0.32,2.11 0.38,2.21 0.18,0.3 0.38,0.63 0.75,0.82 0.94,0.49 1.71,-0.54 3.69,-0.91 v 0 z"
             id="path24"
             style="fill:#1e1e1c;stroke-width:0px" />
          <path
             class="cls-3"
             d="m 254.4,41.74 c 0.16,-0.19 0.5,-0.52 3.28,-1.35 1.26,-0.38 1.54,-0.41 1.93,-0.75 0.13,-0.12 0.94,-0.82 0.84,-1.68 -0.02,-0.19 -0.09,-0.4 -1.22,-1.56 -1.06,-1.09 -1.23,-1.13 -1.39,-1.13 -0.51,0 -0.62,0.54 -1.64,1.39 -0.31,0.26 -0.77,0.53 -1.68,1.09 -1.45,0.88 -1.58,0.85 -2.01,1.26 -0.43,0.41 -1.15,1.09 -1.09,2.01 0.03,0.56 0.37,1.29 1.01,1.52 0.56,0.19 1.12,-0.09 1.26,-0.17 0.38,-0.2 0.57,-0.46 0.71,-0.63 z"
             id="path25"
             style="fill:#1e1e1c;stroke-width:0px" />
          <path
             class="cls-3"
             d="m 254.68,35.56 c 0.68,-0.51 0.97,-0.56 1.39,-1.05 0.24,-0.28 0.7,-0.82 0.71,-1.56 0,-0.57 -0.27,-0.98 -0.84,-1.76 -0.7,-0.98 -1.1,-1.54 -1.6,-1.52 -0.48,0.03 -0.6,0.59 -1.43,1.76 -0.89,1.27 -1.15,1.17 -2.23,2.65 -1.12,1.53 -1.17,2.08 -1.18,2.35 -0.01,0.61 0.2,1.57 0.84,1.85 0.84,0.37 2.03,-0.64 2.82,-1.3 0.73,-0.62 0.7,-0.82 1.52,-1.43 v 0 z"
             id="path26"
             style="fill:#1e1e1c;stroke-width:0px" />
          <path
             class="cls-3"
             d="m 248.56,34.81 c 0.68,-0.02 1.58,-1.07 3.36,-3.19 0.05,-0.06 0.6,-0.71 1.18,-1.68 0.67,-1.11 0.67,-1.47 0.67,-1.6 -0.02,-0.89 -0.78,-1.52 -1.13,-1.81 -0.26,-0.22 -1.01,-0.84 -2.01,-0.84 -1.39,0 -2.34,1.15 -3.15,2.14 -0.52,0.63 -1.2,1.47 -1.43,2.77 -0.12,0.66 -0.31,1.74 0.34,2.77 0.06,0.1 0.95,1.46 2.18,1.43 v 0 z"
             id="path27"
             style="fill:#1e1e1c;stroke-width:0px" />
          <path
             class="cls-3"
             d="m 240.28,20.65 c 0.35,-0.06 0.16,-0.75 0.92,-1.52 0.39,-0.39 0.67,-0.42 1.6,-1.18 0.3,-0.24 0.44,-0.38 0.55,-0.46 0.84,-0.7 2.44,-1.18 3.7,-0.92 2.12,0.43 2.57,2.84 3.53,2.61 0.85,-0.2 1.13,-2.28 0.96,-3.66 -0.08,-0.64 -0.31,-2.69 -1.72,-3.23 -1.07,-0.42 -2.24,0.25 -2.31,0.3 -0.98,0.58 -0.98,1.4 -1.72,1.64 -0.71,0.22 -0.98,-0.71 -2.18,-0.84 -0.54,-0.06 -0.96,0.06 -1.6,0.25 -0.52,0.15 -1.24,0.36 -1.93,0.92 -0.23,0.19 -1.08,0.87 -1.39,1.97 -0.55,1.99 0.95,4.22 1.6,4.12 v 0 z"
             id="path28"
             style="fill:#1e1e1c;stroke-width:0px" />
        </g>
        <path
           class="cls-3"
           d="m 220.24,335.91 c -0.06,0.12 0.09,0.28 0.12,0.69 0.01,0.21 -0.02,0.25 -0.02,0.51 0,0.26 0.04,0.46 0.07,0.6 0,0.12 -0.02,0.3 -0.02,0.51 -0.01,0.49 0,0.86 0,0.99 0.02,0.67 0.01,1.34 0.03,2 0.02,0.86 0.05,5.5 0.09,17.63 -5.36,0.97 -9.71,2.51 -12.83,3.84 -4.79,2.04 -7.71,3.99 -8.76,4.72 -5.69,3.94 -7.85,7.33 -8.46,8.32 0,0 -1.64,2.69 -2.74,6.96 -0.66,2.55 -0.64,3.86 -0.24,4.96 0.38,1.04 1.03,1.67 1.46,2 h 95.91 c 0.2,-0.08 0.52,-0.23 0.82,-0.58 0.56,-0.66 0.67,-1.56 0.73,-2.04 0.34,-3 -0.96,-6.3 -0.96,-6.3 -1.92,-4.85 -4.6,-7.9 -4.84,-8.16 -4.25,-4.74 -8.34,-6.93 -14.23,-9.48 -3.17,-1.37 -7.53,-2.95 -12.87,-4.02 v -23.22 h -4.52 c 0.08,8.78 0.15,17.56 0.23,26.34 0,0.2 0,0.5 0.09,0.84 0.22,0.86 0.77,1.29 0.96,1.44 0.17,0.13 0.41,0.28 0.82,0.41 0.88,0.26 1.6,0.12 1.87,0.07 0.63,-0.1 1.4,0.13 2.97,0.6 2.93,0.88 6.16,2.33 9.99,3.96 2.4,1.02 2.05,0.84 2.42,1.02 4.58,2.21 7.51,5.25 8.21,6 1.42,1.52 3.34,3.88 5.15,7.32 h -89.47 c 0.34,-1.06 0.9,-2.56 1.82,-4.14 1.73,-2.97 3.67,-4.4 6.48,-6.42 3.23,-2.33 5.92,-3.54 7.67,-4.32 2.52,-1.12 4.55,-1.76 6.03,-2.22 1.75,-0.55 3.59,-1.02 7.26,-1.98 0.39,-0.1 1.44,0.2 2.33,-0.6 0.61,-0.55 0.92,-1.34 1.1,-1.92 v -26.4 h -3.25 c -0.37,0.1 -0.66,0.09 -0.85,0.06 -0.27,-0.03 -0.46,-0.12 -0.52,0 h -0.02 z"
           id="path29"
           style="fill:#1e1e1c;stroke-width:0px" />
        <path
           class="cls-3"
           d="M 347.95,304.78 H 129.61 c -5.98,0 -12.19,0.48 -18.16,0 -4.38,-0.35 -3.78,-4.59 -3.78,-7.71 V 174.1 c 0,-10.18 -0.33,-20.42 0,-30.59 0.1,-3.12 2.22,-4.35 5.02,-4.35 h 233.92 c 2.8,0 4.97,1.1 5.11,4.31 0.15,3.37 0,6.79 0,10.16 v 143.23 c 0,3.08 0.66,7.68 -3.77,7.91 -4.82,0.24 -4.86,7.78 0,7.53 6.34,-0.33 11.06,-4.97 11.31,-11.35 0.03,-0.79 0,-1.59 0,-2.38 V 175.28 c 0,-10.58 0.13,-21.16 0,-31.73 -0.09,-6.76 -4.91,-11.82 -11.73,-11.93 -2.48,-0.04 -4.97,0 -7.46,0 H 138.55 c -8.65,0 -17.29,-0.04 -25.94,0 -6.72,0.03 -12.19,4.32 -12.46,11.38 -0.1,2.75 0,5.53 0,8.28 v 145.38 c 0,4.59 -0.17,9.08 3.59,12.57 3.18,2.96 6.88,3.08 10.84,3.08 h 233.39 c 4.85,0 4.86,-7.53 0,-7.53 v 0 z"
           id="path30"
           style="fill:#1e1e1c;stroke-width:0px" />
        <path
           class="cls-3"
           d="M 374.91,327.3 H 101.14 c -7.38,0 -15,0.55 -22.36,0 -5.49,-0.41 -4.73,-5.8 -4.73,-9.71 V 163.28 c 0,-12.64 -0.12,-25.28 0,-37.92 0.04,-3.96 2.84,-5.43 6.32,-5.43 H 373.3 c 3.48,0 6.28,1.46 6.32,5.43 0.04,4.24 0,8.49 0,12.73 v 179.49 c 0,3.81 0.77,9.47 -4.72,9.71 -6.05,0.26 -6.08,9.7 0,9.44 7.94,-0.34 13.91,-6.32 14.16,-14.29 0.03,-1.1 0,-2.21 0,-3.31 V 164.69 c 0,-13.11 0.13,-26.23 0,-39.34 -0.08,-8.52 -6.32,-14.79 -14.84,-14.87 -3.26,-0.03 -6.52,0 -9.79,0 H 80.2 c -8.43,0 -15.3,5.5 -15.57,14.32 -0.12,3.63 0,7.27 0,10.9 v 181.67 c 0,6.34 0.09,12.44 5.97,16.69 3.9,2.82 8.1,2.66 12.55,2.66 h 291.78 c 6.07,0 6.08,-9.44 0,-9.44 v 0 z"
           id="path31"
           style="fill:#1e1e1c;stroke-width:0px" />
        <path
           class="cls-3"
           d="m 447.83,228.19 c -0.08,45.58 -14.28,90.26 -40.7,127.43 -25.57,35.97 -62.23,63.96 -103.73,79.01 -43.34,15.72 -91.27,17.45 -135.62,4.79 C 125.09,427.24 86.8,401.93 58.54,367.74 30.01,333.23 12.55,289.91 9.18,245.26 5.74,199.63 16.5,153.63 40.22,114.48 63.11,76.69 97.34,46.37 137.53,28.04 179.32,8.97 227.2,3.73 272.18,12.93 c 43.8,8.96 84.19,31.4 115.04,63.74 30.86,32.36 51.26,73.86 58.11,118.05 1.71,11.06 2.48,22.26 2.5,33.45 0.01,5.5 8.57,5.51 8.56,0 C 456.3,181.07 441.68,134.5 414.3,96.12 387.52,58.57 349.73,29.63 306.41,13.75 261.53,-2.7 211.47,-4.41 165.52,8.69 121.28,21.31 81.21,47.59 52.02,83.15 22.32,119.34 4.27,164.02 0.67,210.7 c -3.64,47.15 7.67,95.05 32.18,135.51 23.73,39.17 59.32,70.96 101.08,89.83 43.73,19.76 93.11,25.26 140.14,15.72 45.29,-9.18 87.33,-32.61 119.2,-66.02 32,-33.55 53.49,-76.73 60.43,-122.61 1.75,-11.57 2.66,-23.24 2.69,-34.94 0.01,-5.51 -8.54,-5.51 -8.56,0 z"
           id="path32"
           style="fill:#1e1e1c;stroke-width:0px" />
        <path
           class="cls-3"
           d="m 252.76,189.14 c -4.55,0.75 -9.08,1.51 -13.63,2.26 -7.24,1.2 -14.48,2.4 -21.73,3.6 -1.67,0.28 -3.33,0.55 -4.99,0.83 -0.77,0.13 -1.21,1.09 -1.02,1.79 0.23,0.82 1.01,1.14 1.79,1.02 4.55,-0.75 9.08,-1.51 13.63,-2.26 7.24,-1.2 14.48,-2.4 21.73,-3.6 1.67,-0.28 3.33,-0.55 4.99,-0.83 0.77,-0.13 1.21,-1.09 1.02,-1.79 -0.23,-0.82 -1.01,-1.14 -1.79,-1.02 z"
           id="path33"
           style="fill:#1e1e1c;stroke-width:0px" />
        <path
           class="cls-3"
           d="m 212.41,198.64 c 1.99,0.38 3.97,0.75 5.96,1.13 4.74,0.89 9.49,1.79 14.23,2.69 5.76,1.09 11.52,2.17 17.28,3.26 4.96,0.93 9.92,1.87 14.88,2.81 2.42,0.46 4.84,0.95 7.26,1.37 0.03,0 0.07,0.01 0.1,0.02 0.77,0.15 1.57,-0.21 1.79,-1.02 0.2,-0.71 -0.24,-1.64 -1.02,-1.79 -1.99,-0.38 -3.97,-0.75 -5.96,-1.13 -4.74,-0.89 -9.49,-1.79 -14.23,-2.69 -5.76,-1.09 -11.52,-2.17 -17.28,-3.26 l -14.88,-2.81 c -2.42,-0.46 -4.84,-0.95 -7.26,-1.37 -0.03,0 -0.07,-0.01 -0.1,-0.02 -0.77,-0.15 -1.57,0.21 -1.79,1.02 -0.2,0.71 0.24,1.64 1.02,1.79 z"
           id="path34"
           style="fill:#1e1e1c;stroke-width:0px" />
        <path
           class="cls-3"
           d="m 272.52,207.05 c -2.93,0.36 -5.85,0.72 -8.77,1.08 -6.97,0.86 -13.94,1.71 -20.91,2.57 -8.42,1.03 -16.85,2.07 -25.27,3.11 -7.32,0.9 -14.65,1.8 -21.97,2.7 -3.54,0.44 -7.07,0.86 -10.61,1.31 -0.05,0 -0.1,0.01 -0.15,0.02 -0.78,0.09 -1.45,0.6 -1.45,1.45 0,0.71 0.67,1.55 1.45,1.45 2.93,-0.36 5.85,-0.72 8.77,-1.08 6.97,-0.86 13.94,-1.71 20.91,-2.57 8.42,-1.03 16.85,-2.07 25.27,-3.11 7.32,-0.9 14.65,-1.8 21.97,-2.7 3.54,-0.44 7.07,-0.86 10.61,-1.31 0.05,0 0.1,-0.01 0.15,-0.02 0.78,-0.09 1.45,-0.6 1.45,-1.45 0,-0.71 -0.67,-1.55 -1.45,-1.45 z"
           id="path35"
           style="fill:#1e1e1c;stroke-width:0px" />
        <path
           class="cls-3"
           d="m 184.46,220.68 c 2.8,0.41 5.59,0.81 8.39,1.22 6.71,0.98 13.43,1.95 20.14,2.93 8.12,1.18 16.24,2.36 24.36,3.54 7.02,1.02 14.04,2.04 21.05,3.06 3.41,0.49 6.81,1 10.22,1.49 0.05,0 0.09,0.01 0.14,0.02 0.77,0.11 1.56,-0.19 1.79,-1.02 0.19,-0.68 -0.23,-1.67 -1.02,-1.79 -2.8,-0.41 -5.59,-0.81 -8.39,-1.22 -6.71,-0.98 -13.43,-1.95 -20.14,-2.93 -8.12,-1.18 -16.24,-2.36 -24.36,-3.54 l -21.05,-3.06 c -3.41,-0.49 -6.81,-1 -10.22,-1.49 -0.05,0 -0.09,-0.01 -0.14,-0.02 -0.77,-0.11 -1.56,0.19 -1.79,1.02 -0.19,0.68 0.23,1.67 1.02,1.79 z"
           id="path36"
           style="fill:#1e1e1c;stroke-width:0px" />
        <path
           class="cls-3"
           d="m 268.42,230.27 c -2.53,1.21 -5.05,2.41 -7.58,3.62 -6.02,2.87 -12.04,5.74 -18.06,8.61 -7.3,3.48 -14.6,6.96 -21.9,10.44 -6.31,3.01 -12.61,6.01 -18.92,9.03 l -6.22,2.97 c -0.98,0.47 -2,0.89 -2.95,1.41 -0.04,0.02 -0.09,0.04 -0.13,0.06 -0.71,0.34 -0.89,1.35 -0.52,1.99 0.42,0.73 1.28,0.86 1.99,0.52 2.53,-1.21 5.05,-2.41 7.58,-3.62 6.02,-2.87 12.04,-5.74 18.06,-8.61 7.3,-3.48 14.6,-6.96 21.9,-10.44 6.31,-3.01 12.61,-6.01 18.92,-9.03 2.07,-0.99 4.14,-1.97 6.22,-2.97 0.98,-0.47 2,-0.89 2.95,-1.41 0.04,-0.02 0.09,-0.04 0.13,-0.06 0.71,-0.34 0.89,-1.35 0.52,-1.99 -0.42,-0.73 -1.28,-0.86 -1.99,-0.52 z"
           id="path37"
           style="fill:#1e1e1c;stroke-width:0px" />
        <path
           class="cls-3"
           d="m 192.37,268.68 c 1.45,1.14 2.88,2.29 4.33,3.43 3.44,2.73 6.89,5.46 10.33,8.18 4.19,3.31 8.37,6.63 12.56,9.95 3.6,2.86 7.21,5.71 10.82,8.57 1.76,1.4 3.53,2.8 5.3,4.2 0.02,0.02 0.05,0.04 0.08,0.06 0.62,0.49 1.45,0.6 2.05,0 0.51,-0.51 0.62,-1.56 0,-2.05 -1.45,-1.14 -2.88,-2.29 -4.33,-3.43 -3.44,-2.73 -6.89,-5.46 -10.33,-8.18 -4.19,-3.31 -8.37,-6.63 -12.56,-9.95 -3.6,-2.86 -7.21,-5.71 -10.82,-8.57 -1.76,-1.4 -3.53,-2.8 -5.3,-4.2 -0.02,-0.02 -0.05,-0.04 -0.08,-0.06 -0.62,-0.49 -1.45,-0.6 -2.05,0 -0.51,0.51 -0.62,1.56 0,2.05 z"
           id="path38"
           style="fill:#1e1e1c;stroke-width:0px" />
        <path
           class="cls-3"
           d="m 241.64,245.18 c 3.49,3.34 6.99,6.68 10.49,10.01 5.57,5.32 11.13,10.63 16.69,15.95 1.27,1.21 2.54,2.43 3.81,3.63 1.35,1.29 3.41,-0.76 2.05,-2.05 -3.49,-3.34 -6.99,-6.68 -10.49,-10.01 -5.57,-5.32 -11.13,-10.63 -16.69,-15.95 -1.27,-1.21 -2.54,-2.43 -3.81,-3.63 -1.35,-1.29 -3.41,0.76 -2.05,2.05 z"
           id="path39"
           style="fill:#1e1e1c;stroke-width:0px" />
        <path
           class="cls-3"
           d="m 274.04,275.15 c 3,-1 6,-2.01 8.99,-3.01 4.78,-1.6 9.55,-3.2 14.33,-4.81 1.1,-0.37 2.2,-0.74 3.3,-1.1 1.76,-0.59 1,-3.4 -0.77,-2.8 -3,1 -6,2.01 -8.99,3.01 -4.78,1.6 -9.55,3.2 -14.33,4.81 -1.1,0.37 -2.2,0.74 -3.3,1.1 -1.76,0.59 -1,3.4 0.77,2.8 z"
           id="path40"
           style="fill:#1e1e1c;stroke-width:0px" />
        <path
           class="cls-3"
           d="m 215.49,255.91 c -4.09,-1.68 -8.18,-3.36 -12.28,-5.04 -6.52,-2.68 -13.03,-5.35 -19.55,-8.02 -1.49,-0.61 -2.98,-1.22 -4.47,-1.83 -0.73,-0.3 -1.6,0.33 -1.79,1.02 -0.23,0.83 0.28,1.49 1.02,1.79 4.09,1.68 8.18,3.36 12.28,5.04 6.52,2.68 13.03,5.35 19.55,8.02 1.49,0.61 2.98,1.22 4.47,1.83 0.73,0.3 1.6,-0.33 1.79,-1.02 0.23,-0.83 -0.28,-1.49 -1.02,-1.79 z"
           id="path41"
           style="fill:#1e1e1c;stroke-width:0px" />
        <path
           class="cls-3"
           d="m 178.07,241.16 c -3.42,1.87 -6.83,3.74 -10.25,5.61 -5.42,2.97 -10.84,5.93 -16.27,8.89 -1.25,0.68 -2.5,1.36 -3.74,2.05 -1.64,0.89 -0.17,3.4 1.46,2.51 3.42,-1.87 6.83,-3.74 10.25,-5.61 5.42,-2.97 10.84,-5.93 16.27,-8.89 1.25,-0.68 2.5,-1.36 3.74,-2.05 1.64,-0.89 0.17,-3.4 -1.46,-2.51 z"
           id="path42"
           style="fill:#1e1e1c;stroke-width:0px" />
        <path
           d="M 3012,4453 C 2962.877,4261.27 2874.3412,4081.3638 2738.875,3935.6875 2676.3822,3795.624 2638.6016,3680.6943 2482.5,3618.625 2334.315,3498.8134 2369.8833,3340.7397 2564.625,3336.5 2583.1931,3152.4931 2450.9777,2947.7758 2276.5156,2940.1875 2096.8873,2960.333 2032.7058,2807.2165 1911,2719 c 70.2892,-63.8279 30.4051,-62.5178 85.0765,-136.9701 C 1959.7602,2469.1899 1720.2377,2277.5323 1799,2331 c -37.4287,-164.4567 -318.2284,8.9294 -412.8965,-166.2109 -101.9317,-133.971 -200.8392,-337.1059 -411.43553,-256.5664 -286.15964,5.7316 3.70268,-271.5889 97.58003,-350.8909 C 1175.0233,1473.3201 1381.6603,1228.7309 1497,1354 c 17.8377,109.5709 110.5388,19.444 97,163.625 96.5484,70.1257 76.6593,273.443 170.5,248.75 98.8238,112.739 215.5679,-135.4818 298.5,-206.375 51.4162,-59.9657 236.34,-9.6209 147.625,-97.5 84.0683,-19.4206 181.1057,12.4718 196.191,-100.5224 69.0716,-55.7745 42.6808,-569.55913 12.0278,-509.64948 C 2501.5518,707.05978 2310.9398,518.79684 2528.5,446 c 156.2586,-89.88425 341.8288,-308.45206 531.625,-210.25 129.0134,155.97818 -94.7659,312.22005 -80.625,480.5 40.9069,158.49003 -122.091,370.3323 -8.75,473.5 92.8238,60.8606 -114.1205,165.6163 -40.0011,288.9102 55.2433,100.9424 258.321,-17.7427 366.4366,4.9765 160.1658,7.5679 332.4761,-46.077 467.8145,61.3633 173.2909,86.898 230.844,309.8955 260.625,485.9219 8.4276,170.1951 -42.5071,339.2889 -143.5625,471.4062 -111.0278,107.5977 -280.7008,137.4265 -343.8633,240.0508 -93.8417,-29.2299 -182.3812,40.3344 -70.4898,64.7968 154.236,-36.8727 334.5878,-87.0341 467.1046,32.7635 196.7823,106.3934 277.7275,311.2681 284.0869,524.813 -0.2065,206.3292 180.3827,381.3352 166.0991,575.2478 -152.1948,-39.7427 -258.8624,-219.8398 -422.6367,-273.0481 -93.8985,-21.4783 -176.4919,-222.4933 -210.5352,-48.9363 -85.18,57.1159 -194.9114,-13.865 -222.4531,110.1094 -220.6065,-86.7291 -263.0982,129.6318 -313.7188,298.9219 C 3134.8838,4123.0951 3126.3346,4457.4813 3012,4453 Z m 43,-148 c 12.2466,-172.9755 152.6062,-395.7787 60,-543 -122.9606,-72.2935 -221.0065,-19.9517 -358.0867,-15.8528 -138.2856,-27.949 -2.5079,167.9667 -16.9133,139.8528 39.0308,80.3306 121.3514,114.4511 153.125,207.25 64.4066,52.895 164.0516,334.3014 119.875,263.75 38.343,73.1992 23.4894,-6.1982 42,-52 z M 4360,3849 C 4348.8471,3810.3454 4259.226,3648.8826 4237.3438,3555.9375 4177.8089,3462.0045 4183.0075,3312.5258 4169,3220 c 49.1768,-66.9235 -245.4232,-375.7431 -91,-204 -66.0989,-106.4913 -221.4015,-186.0527 -202,-178 -81.1674,-37.8214 -132.3116,-70.726 -240,-43 -188.4897,-25.9822 -170.1092,104.3053 -41.23,186.6699 170.6234,103.9568 264.0637,269.6899 356.7417,438.8828 C 4097.5296,3547.516 4214.8541,3756.3564 4360,3849 Z M 3279,3737 c 44.6166,-94.5622 60.2482,-265.7563 -27,-316 188.3247,49.9041 -30.3422,262.1625 181.0742,228.0586 115.7188,-26.7878 351.9103,-93.9022 161.0508,-225.1836 57.1838,-20.3118 118.3159,227.4371 170.875,85.125 -51.989,-93.9977 -57.4504,-162.5588 12.5,-26.5 66.1443,41.0476 126.7074,47.3547 203.5,112.5 164.3968,77.7249 -141.3675,-228.2534 -94,-183.375 -9.219,-88.831 -20.7344,-6.3602 -66,-131.125 -68.826,-111.2176 -14.2778,-82.9295 -51,-115.5 52.2345,139.5498 -221.2716,202.3278 -260.875,158.625 159.8751,37.1936 343.3213,-131.7417 156.625,-237.5 -57.4549,-9.5448 81.4535,140.7693 -57.2891,131.7871 -100.8521,6.4335 85.0935,-14.3256 -1.4609,-14.7871 -161.4234,-80.3958 -337.3264,-195.0754 -528.355,-139.7559 -195.1876,29.7253 -321.3291,193.8796 -481.645,291.5059 -64.4377,74.7379 -193.6656,137.391 -47.6152,230.0117 105.6138,125.3525 299.7655,123.5515 412.3652,104.8633 58.0655,-44.3353 90.7445,83.7374 144.625,33.375 35.2047,26.7595 155.4034,101.9718 172.625,13.875 z m -668,-437 c 105.1775,-35.8278 -37.9275,-340.6847 -142.6311,-414.4785 -58.0995,-49.03 -126.8066,54.7173 -50.3806,-59.3418 69.2361,-78.2187 126.9391,-156.5393 224.7617,-161.6797 80.8877,-42.7646 98.6376,22.5341 177.25,-23.5 -137.0587,-57.6575 -285.6612,-212.5535 -388.168,-11.5762 -100.6671,138.9295 128.4989,-26.3584 7.5196,76.7696 -96.2417,47.3103 -228.0219,268.7769 -32.6016,219.6816 148.4842,83.9329 187.6326,314.1121 183.25,304.125 47.6586,-0.2335 48.8173,50.0205 12.875,75.25 z m 1056,-127 c -41.8357,-69.6385 -184.0171,-176.2144 -123.875,-175.125 -25.9195,-75.7242 -50.2017,-85.5591 -126.5,-170.125 -80.0967,-102.8415 77.3879,80.6614 -21.625,-61.75 -26.0889,-90.121 -126.4165,-42.6707 -195.7441,-52.2715 -167.9466,-3.4542 170.9598,286.7938 148.4941,211.7246 89.184,81.598 180.3232,287.1559 319.25,247.5469 z m -897,-38 c 90.3805,-92.4778 444.0135,-151.2836 347.3594,-133.3438 -131.5063,-32.8521 -228.6094,-128.9589 -321.8594,-1.9062 -120.1038,19.9167 -157.6991,7.1931 -103.625,138 27.4113,-8.6851 51.0461,33.9414 78.125,-2.75 z m 505,-135 c 133.6393,-129.096 -164.574,40.4832 0,0 z m -461,-104 c 149.861,-39.8833 -193.23,-120.8747 -52,-98 101.1962,64.3755 381.8041,130.326 369.4844,-47.2344 -156.5722,-52.6119 -327.1083,-105.3999 -496.1548,-55.8938 -321.3701,42.7204 60.526,319.8684 178.6704,201.1282 z m -590,-91 c 159.3279,-55.2703 103.8824,-310.8641 -92.1328,-195.957 -116.5329,38.806 -27.6721,193.9282 75.1953,206.6445 z m 1250,-140 c 103.5101,3.0793 485.192,-282.3826 286,-192 -135.1963,173.3079 175.0969,-50.721 71.125,-26 104.9676,-287.5111 97.2838,-658.8434 -130.125,-886 -17.1286,17.6937 66.0118,146.4576 -23.625,25.625 -97.1744,-119.4064 -304.7264,-34.1305 -453.1973,-50.2656 -93.434,9.2013 -238.1927,-28.9664 -108.2697,85.7243 191.0437,253.4381 248.271,622.4621 104.092,909.9163 111.0047,21.3935 451.6996,-70.0036 428.0957,-37.8574 -204.1476,61.7797 -445.8917,-5.9805 -589.3769,184.9512 C 3160.8505,2717.0851 3352.035,2689.519 3474,2665 Z m -452,8 c 267.3196,-102.9514 293.5847,-439.0772 241.6206,-681.5171 -37.4136,-187.4991 -134.1642,-427.5074 -344.7456,-465.3579 134.9226,72.6138 251.054,276.5135 277.9262,456.7747 48.0158,213.6386 41.5295,484.8819 -137.6918,634.1003 -68.6288,-11.6619 88.7058,-97.3564 67.2461,-104.9277 46.9066,-67.196 -20.7279,-348.2193 56.6445,-318.0723 -168.1759,-25.4399 -77.943,177.76 -158.5762,260.7891 -61.5978,74.571 -157.3174,151.7606 -237.6001,161.2126 76.9432,32.9937 310.7982,53.9049 250.6451,19.4045 C 2931.7537,2661.8307 2846.9982,2708.4677 3022,2673 Z m -473,-164 c 99.5374,-45.451 -346.508,-195.9726 -199,-169 -111.2043,-21.6007 -36.0547,266.1426 -72.3767,61.7264 15.2823,-79.8088 -241.1059,-42.0815 -55.6233,-63.7264 103.8198,16.9592 169.1864,-12.0229 101,-104 72.954,140.6753 275.1635,291.04 417,246 25.7438,-152.4163 -409.2013,-120.7632 -122.5781,-138.8477 171.6604,40.2725 284.1779,-261.0956 49.291,-176.2324 -118.7409,45.9887 -209.7307,-61.0321 -45.041,-82.3574 130.2341,20.2789 286.461,-124.0588 88.9531,-169.8125 -79.3667,-13.7131 -257.5841,23.29 -82.0312,-20.0156 172.551,55.3055 169.789,-150.6268 -6.7715,-108.9197 -150.4685,-21.2879 -293.6037,118.4379 -311.1973,147.6853 -175.5257,-1.3457 -388.0314,103.1444 -396.125,296.25 -131.972,-97.3776 168.2875,453.9198 81.9688,236.6094 -28.6203,192.7484 245.7169,-52.8975 350.5312,63.6406 106.7521,94.5494 88.3689,47.148 202,-19 z m 212,69 c 38.6217,40.2873 243.5586,-96.9784 89,-40.125 -23.7146,16.6683 -174.9235,42.4763 -89,40.125 z m 112,-74 c 166.9711,-121.0839 166.0611,-367.3112 116,-549 32.367,-147.1194 -184.9852,-392.0817 -268,-181 115.3342,42.5836 -4.3401,221.6974 144.4844,107.25 203.8184,-129.158 -139.3546,114.4269 -48.1094,50.125 116.2495,159.191 -312.9213,168.6228 -108.375,208.625 86.1273,42.0078 270.0795,-129.5835 109,10 71.1873,131.2304 -86.5446,151.5642 -119.125,228.375 84.9087,28.695 40.7885,237.9021 174.125,125.625 z m 83,-6 c 72.8614,-94.6356 -115.7399,68.4824 0,0 z m 34,-48 c 92.8007,-148.2318 82.1523,-333.3444 37,-207 -1.0864,48.3595 -75.0883,237.782 -37,207 z m 893,-64 c 12.5829,26.5712 103.6871,-115.8623 43,-90 -50.082,-12.265 -85.1086,191.4117 -43,90 z m 71,-140 c 70.7349,-153.2852 -68.9053,-155.243 -50.9817,-0.7751 -22.3017,76.678 25.6133,35.5974 50.9817,0.7751 z m -2115,-12 c 89.736,-75.811 104.8073,-194.2394 150.8301,-296.6738 43.7415,-71.3813 -96.1462,-67.4627 33.1699,-104.3262 -128.1607,0.493 -16.7241,-88.014 -147.5,-39.75 30.2511,17.6156 -134.3276,19.588 -81.8906,126.0312 -25.2943,180.1128 -141.7627,260.0342 -300.9532,295.7188 120.6945,1.5584 232.1515,7.3475 346.3438,19 z m 1230,-111 c -39.2143,-31.4171 -112.268,-165.1477 -47,-139 -13.4783,36.209 44.0872,266.813 47,139 z m 134,15 c -14.1073,-191.1506 -74.602,-409.8001 -203.8691,-540.252 -140.4833,-133.021 -306.0449,100.3557 -330.3184,163.7364 74.853,-60.7451 96.1555,-129.806 196.1875,-106.4844 -57.8756,-149.4925 219.7222,129.2623 67,65 -117.9234,-194.3701 55.6688,181.0754 69,58 -45.701,-3.0794 -30.094,-64.0551 41,8 94.8281,-42.5436 -64.1283,97.013 25.25,166.125 35.8834,59.9946 -35.4362,225.5318 60.2279,217.875 29.8663,-8.0817 100.2234,23.6392 75.5221,-32 z m -1686,-36 c 49.5908,-33.0041 223.1305,-71.9373 111,-138 -98.3617,-69.7128 -260.0321,206.2498 -111,138 z m -86,-50 c 144.2754,-134.3589 -292.8638,-145.7836 -73.4531,-16.7656 44.2321,34.509 1.3742,130.6429 73.4531,16.7656 z m 2526,52 c 58.706,-87.298 -3.2192,-232.3885 -23,-212 -33.6729,-104.1547 -81.872,-200.4829 -139,-282 -23.0403,28.8555 126.5225,264.462 109.9236,386.6716 10.7704,31.945 -14.3554,135.4988 52.0764,107.3284 z m -912,-155 c 5.3212,-54.818 -63.2877,-176.9383 -48,-41 -1.8836,14.719 31.1193,102.1116 48,41 z m -1558,-56 c 41.6407,-118.3928 88.0779,-313.821 48,-398.375 -23.0268,-34.7269 -25.7437,84.8305 -80,25.375 -52.4892,17.9764 -154.3978,172.1181 -105,165 40.1732,68.2683 -121.8933,-11.7269 -41.375,73.5 -227.0058,75.1973 24.4383,194.3174 149.375,170.5 l 13.75,-10.125 z m 191,9 c 82.5072,-101.3688 -17.3547,-130.2576 -46,-202.625 -64.4327,-246.6124 -83.213,273.9486 -89.2812,229.0625 45.6817,-2.3975 93.7136,-5.442 135.2812,-26.4375 z m 462,-33 c 148.0155,-31.0586 294.9672,-140.6911 427,-198 65.7306,-36.0677 296.5259,-167.7295 76.8379,-164.2891 -158.207,-14.4007 -310.548,45.7873 -442.8379,113.2891 -107.6075,28.713 -197.6385,144.4186 -131,234 4.4873,19.5124 61.8173,37.9193 70,15 z m -964,-15 c -108.5938,-48.1014 142.4715,-66.7149 88.75,-151.875 94.4379,7.3811 40.6995,-73.7535 125.25,-64.2445 -55.1586,-121.6466 150.6437,-147.8304 101,-233.8805 -129.4329,-62.475 -230.3602,59.0254 -307.125,124.375 -89.4569,70.0493 -176.8335,176.5694 -258.50391,268.0312 -9.52839,74.2235 231.11591,55.7727 230.62891,68.8438 z m 1731,-404 c -25.7637,-97.7329 35.601,-243.5718 -148.0508,-267.6738 -209.8859,-69.9009 -305.4905,139.2228 -361.0664,227.9845 -74.4688,60.9995 228.1649,33.4639 37.3672,2.6893 111.5059,-32.0635 410.2859,19.4973 369.75,34 -41.0026,-98.472 137.3173,98.2946 102,3 z m -413,-354 c 27.7511,-106.73718 199.2032,-350.49181 199.9914,-267.43684 -77.2551,-61.55871 -287.1112,-205.87571 -200.5871,-6.7741 C 2511.1907,893.36359 2380.1347,1208.9277 2494,1096 Z m 375,-34 C 2829.906,896.03574 2698.929,814.08727 2615.8447,997.66992 2418.0818,1119.9004 2736.8651,1154.7929 2754,1010 c 33.9806,6.9999 155.2477,185.3047 115,52 z m 38,-140 c 16.6357,-110.08543 51.1211,-224.98924 -82.0469,-112.26562 -131.8009,6.65918 43.6632,140.89848 79.6407,160.39062 l 1.4492,-20.94531 z M 2806,770 c 147.602,-57.009 147.2172,-192.20065 -10,-125 -85.175,-44.4204 -54.0277,121.53249 -148,11 -49.7159,0.70312 -72.244,42.7048 -37.375,-28.5 80.6417,33.3132 146.5602,-85.35183 122.3281,-18.01562 C 2786.8993,630.98665 2998.9123,633.54321 2998,502 c 5.2863,-33.49213 -143.346,116.43614 -42.0449,-17.93945 95.9499,-112.61893 -210.2674,-139.0545 -21.3613,-124.60743 64.7171,51.33252 51.2748,152.44302 102.6562,50.42188 26.6173,-81.85068 -159.182,-136.05367 -1.25,-79.875 74.6773,48.15545 -101.2094,-151.32665 -164,-44 -97.0668,43.43818 -322.098,227.8307 -268,172 -100.4209,63.18696 -120.5162,46.25206 -145,170 121.0496,5.95149 227.9271,248.32565 347,142 z m 278,2916 c -102.3406,-107.6607 -50.8693,38.7481 27.1406,21.7031 z m 353,-63 c -101.9083,-128.1358 7.8562,-76.7212 9.125,26.125 z m -222,-13 c -77.1375,-65.7872 -38.4235,-187.6891 5,-48 6.0934,-1.178 15.4801,106.1162 -5,48 z m -275,0 c 71.8692,-39.4892 144.5347,37.7532 0,0 z m -145,-33 c -80.0135,-26.0256 -175.7663,-140.3153 -35.0039,-39.2129 92.4063,42.5052 227.1526,110.6223 35.0039,39.2129 z m 673,-37 c -204.8295,-118.0204 181.0215,55.5534 35.5938,16.8438 z m 332,-35 c 12.7747,-17.9373 12.7747,17.9373 0,0 z m -416,-33 c 16.8732,-65.7924 306.5821,-147.2839 122.9141,-18.3418 -33.7624,7.9779 -95.8458,36.188 -122.9141,18.3418 z m 89,-34 c 156.6527,-67.4309 0.1429,27.1997 -42.3281,16.7344 l 17.8652,-6.7442 z m -113,-17 c 36.3866,-71.6588 205.8824,-88.1698 48.5,-27.625 -15.8571,3.5441 -31.6924,46.5153 -48.5,27.625 z m -152,-798 c 101.6373,3.2822 -16.961,1.2569 -4.625,2.75 z m 80,-20 c 146.4443,-3.9368 26.0079,10.7555 0,0 z m 422,-128 c 12.7747,-17.9373 12.7747,17.9373 0,0 z m 70,-75 c 39.2822,-82.1156 73.0548,-423.8501 55.625,-164.0469 13.1586,25.6274 -92.6722,317.7047 -55.625,164.0469 z m -289,16 c 89.0874,-25.3542 171.9007,19.0167 0,0 z m 229,-36 c 187.8453,-32.533 -86.7807,32.014 0,0 z m -391.75,-183.375 c -6718.1093,2290.3874 -6718.1093,2290.3874 0,0 z M 3338,2163 c 102.9846,-8.1731 44.6203,13.3951 0,0 z m 180,-10 c 74.2191,-8.0215 39.0594,13.3429 0,0 z m 110,-10 c 146.4443,-3.9368 26.0079,10.7555 0,0 z m 214,-78 c 6.2953,-56.1559 5.4399,62.2463 0,0 z m -532,-35 c 8.5425,-27.1182 8.5425,27.1182 0,0 z m 58,-7 c 146.4443,-3.9368 26.0079,10.7555 0,0 z m 459,-61 c -19.4558,-96.6459 -49.2688,-246.947 3.375,-66.5 14.8868,42.5772 3.0277,185.9286 -3.375,66.5 z m -439,-9 c 102.9846,-8.1731 44.6203,13.3951 0,0 z m 392,-183 c 8.5425,-27.1182 8.5425,27.1182 0,0 z m -515,-31 c 117.4758,-13.7157 441.8753,-11.2937 387.25,-13.5625 -116.5039,3.8337 -323.2235,24.5558 -387.25,13.5625 z m 495,-13 c -73.4798,-163.0211 54.462,68.6041 0,0 z m -605,-136 c 135.5221,-32.7931 102.5708,26.7229 0,0 z m 215,-10 c 110.7612,-39.7983 200.388,33.3765 0,0 z m 230,-5 c 12.7747,-17.9373 12.7747,17.9373 0,0 z m 20,0 c 12.7747,-17.9373 12.7747,17.9373 0,0 z m -883,776 c 55.2311,-77.6036 383.9911,-243.065 177,-113 -35.8932,10.0865 -189.9502,159.7218 -177,113 z m 133,-59 c 234.9974,-204.0838 -8.0412,50.445 0,0 z m -17,-222 c -6242.8593,2417.0124 -6242.8593,2417.0124 0,0 z m 67,-365 c 12.7747,-17.9373 12.7747,17.9373 0,0 z m -120,-415 c 34.2781,-107.5836 11.5969,42.6023 2,17 z m -180,-25 c 41.9924,-168.6014 32.1989,29.2289 0,0 z M 2790,591 C 2962.5265,461.01245 2724.9677,382.46918 2676.666,465.93945 2783.5381,280.85048 2982.6027,527.95812 2790,591 Z"
           id="path1-7"
           style="fill:#1e1e1c;stroke-width:0px"
           transform="matrix(0.10516957,0,0,-0.10516957,356.51004,471.89716)" />
      </g>
    </g>
    <text
       xml:space="preserve"
       style="font-size:4.58611px;letter-spacing:0.132292px;word-spacing:0.0238125px;fill:#000000;stroke-width:0.264583"
       x="64.536659"
       y="43.288395"
       id="text2"><tspan
         sodipodi:role="line"
         style="font-size:4.58611px;letter-spacing:0.132292px;word-spacing:0.0238125px;stroke-width:0.264583"
         x="64.536659"
         y="43.288395"
         id="tspan5"><tspan
           dx="0 0.059999999"
           dy="0 0"
           id="tspan6"
           style="font-size:4.58611px;letter-spacing:0.132292px;word-spacing:0.0238125px;stroke-width:0.264583">REJS KAPITAŃSKI JSM KRYSTIANA</tspan></tspan></text>
    <text
       xml:space="preserve"
       style="font-size:4.5861px;line-height:0;letter-spacing:0.132292px;word-spacing:0.0238125px;fill:#000000;stroke-width:0.264583"
       x="93.703545"
       y="50.943054"
       id="text7"><tspan
         sodipodi:role="line"
         id="tspan7"
         style="stroke-width:0.264583"
         x="93.703545"
         y="50.943054">III.OFICER</tspan></text>
  </g>
</svg>
