<?xml version="1.0" encoding="UTF-8" standalone="no"?>
<!-- Created with Inkscape (http://www.inkscape.org/) -->

<svg
   width="138.79735mm"
   height="30mm"
   viewBox="0 0 138.79735 30"
   version="1.1"
   id="svg1"
   sodipodi:docname="kapitan_ja.svg"
   inkscape:version="1.3.2 (091e20e, 2023-11-25)"
   xmlns:inkscape="http://www.inkscape.org/namespaces/inkscape"
   xmlns:sodipodi="http://sodipodi.sourceforge.net/DTD/sodipodi-0.dtd"
   xmlns="http://www.w3.org/2000/svg"
   xmlns:svg="http://www.w3.org/2000/svg">
  <sodipodi:namedview
     id="namedview1"
     pagecolor="#ffffff"
     bordercolor="#000000"
     borderopacity="0.25"
     inkscape:showpageshadow="2"
     inkscape:pageopacity="0.0"
     inkscape:pagecheckerboard="0"
     inkscape:deskcolor="#d1d1d1"
     inkscape:document-units="mm"
     inkscape:zoom="0.7203704"
     inkscape:cx="434.4987"
     inkscape:cy="220.71979"
     inkscape:window-width="1728"
     inkscape:window-height="1051"
     inkscape:window-x="0"
     inkscape:window-y="38"
     inkscape:window-maximized="0"
     inkscape:current-layer="g1"
     showguides="true" />
  <defs
     id="defs1">
    <rect
       x="267.36218"
       y="322.23129"
       width="29.928602"
       height="96.27034"
       id="rect2" />
    <rect
       x="499.42612"
       y="784.8125"
       width="361.48938"
       height="404.29733"
       id="rect1" />
  </defs>
  <g
     inkscape:label="Layer 1"
     inkscape:groupmode="layer"
     id="layer1"
     transform="translate(-9.8564786,-29.472094)">
    <g
       id="g1"
       transform="matrix(0.06574186,0,0,0.06574185,26.42929,52.612118)"
       inkscape:label="g1">
      <g
         id="g28"
         transform="translate(-252.09129,-351.97652)">
        <path
           class="cls-3"
           d="m 224.48,62.47 c 0.46,0.92 0.5,1.81 0.47,2.36 0.06,11.28 -0.12,22.89 -0.57,34.79 -0.16,4.18 -0.35,8.32 -0.57,12.42 -0.19,9.07 -0.38,18.15 -0.57,27.22 -1.11,3.05 -2.23,6.1 -3.34,9.14 -1.15,2.18 -3.47,5.8 -7.72,8.54 -0.65,0.42 -1.76,1.13 -3.31,1.74 -6.43,2.53 -12.91,0.36 -16.83,-0.95 -5.66,-1.89 -4.38,-2.87 -9.58,-4.41 0,0 -3.21,-0.95 -7.66,-4.25 -0.29,-0.21 -0.81,-0.63 -0.79,-1.17 0.02,-0.37 0.3,-0.73 0.63,-0.88 0.51,-0.23 1.09,0.05 1.39,0.19 3.65,1.74 4.39,1.86 4.85,1.89 0.49,0.03 1.35,0.1 2.14,-0.38 0.42,-0.25 0.59,-0.51 1.74,-1.67 0.35,-0.36 0.65,-0.66 0.85,-0.85 -9.62,-9.91 -19.24,-19.83 -28.87,-29.75 l -0.79,1.17 -0.91,3.24 -1.07,6.11 c 0.55,6.1 1.09,12.18 1.64,18.28 1.05,3.74 2.1,7.48 3.15,11.22 1.21,1.63 2.41,3.26 3.62,4.88 l 3,0.85 c 1.03,-0.1 1.75,-0.42 2.18,-0.66 0.77,-0.43 0.88,-0.76 0.91,-0.91 0.07,-0.33 -0.06,-0.63 -0.16,-0.79 l -0.51,-5.86 0.53,-1.17 c 1.6,1.53 3.88,3.59 6.81,5.8 1.36,1.03 6.72,5.01 15,8.95 3.2,1.52 5.42,2.36 9.83,4.03 9.36,3.55 14.05,5.32 17.65,5.54 2.09,0.13 3.76,0.01 5.67,1.13 1.79,1.04 2.4,2.35 5.67,5.42 0.13,0.12 0.92,1.11 2.27,2.01 1.39,0.93 2.13,0.97 2.4,0.96 1.03,0 1.78,-0.53 2.1,-0.75 0.92,-0.64 1.32,-1.51 1.47,-1.81 0.62,-1.22 1.85,-3.17 4.4,-6.5 0.53,-0.38 1.38,-0.91 2.49,-1.35 0.49,-0.2 0.9,-0.33 2.21,-0.69 0.81,-0.23 1.93,-0.53 3.28,-0.88 2.75,-0.78 5.5,-1.56 8.25,-2.33 3.93,-1.53 7.86,-3.06 11.78,-4.6 2.1,-1.7 3.3,-1.49 3.76,-1.34 0.75,0.26 1.6,1.04 1.87,1.3 0.8,0.74 1.17,1.4 1.83,1.39 0.34,0 0.6,-0.19 0.73,-0.28 1.38,-1 3.15,-5.86 3.37,-6.46 0.03,-0.03 0.82,-0.74 0.85,-0.77 0.05,-0.05 1.05,-0.95 1.1,-0.99 2.7,-1.54 5.4,-3.09 8.1,-4.63 0.96,-0.91 2.26,-2.2 3.72,-3.84 1.67,-1.87 2.39,-2.91 2.96,-2.71 0.92,0.31 0.71,3.56 0.69,3.85 -0.11,1.7 -0.52,2.08 -0.21,2.93 0.41,1.15 1.72,2.04 2.87,2.11 0.6,0.04 2.44,-0.06 5.04,-4.48 3.94,-6.7 4.36,-14.38 4.44,-18.94 0.1,-5.44 -0.17,-12.83 -1.7,-21.55 l -1.96,0.69 c -9.02,9.76 -18.05,19.52 -27.07,29.27 1.61,2.13 3.01,2.64 4,2.68 3.02,0.14 5.14,-3.81 7.19,-2.96 0.48,0.2 0.91,0.64 1.01,1.13 0.25,1.19 -1.4,2.48 -4,4.25 -5.65,3.87 -9.35,6.35 -10.78,5.17 -0.09,-0.08 -0.08,-0.09 -1.1,-2.05 -1.11,-2.13 -1.24,-2.34 -1.52,-2.4 -0.8,-0.16 -1.11,1.39 -3.4,3.47 -1.56,1.4 -2.76,2.49 -3.78,2.65 -0.14,0.02 -0.67,0.09 -0.91,0.47 -0.15,0.24 -0.13,0.52 -0.09,0.73 -1.71,0.31 -4.55,0.59 -7.88,-0.25 -3.3,-0.84 -5.52,-2.39 -6.49,-3.09 -1.49,-1.07 -2.5,-2.1 -3.18,-2.8 -1.85,-1.9 -2.99,-3.66 -3.53,-4.54 -1.24,-2.02 -1.92,-3.76 -2.23,-4.63 0,0 -0.42,-1.18 -0.73,-2.36 -1.02,-4.03 -0.48,-8.39 -0.44,-8.7 0.44,-3.65 0.37,-13.91 -0.47,-33.88 l -0.66,-10.94 -0.69,-21.93 c 0.13,-1.15 0.49,-2.34 1.42,-2.93 0.93,-0.59 2.04,-0.35 2.27,-0.31 1.93,0.34 11.9,-1.2 36.18,-6.18 2.15,0.23 4.19,-0.67 5.17,-2.33 0.86,-1.46 0.61,-3 0.51,-3.47 -0.36,-1.66 -1.52,-2.85 -2.68,-3.44 -0.59,-0.3 -1.06,-0.38 -1.76,-0.51 -1.85,-0.33 -2.83,0.02 -4.79,0.06 -1.4,0.03 -1.8,-0.13 -3.24,-0.22 -5.74,-0.37 -9.66,1.46 -10.43,0.09 -0.2,-0.37 0.05,-0.55 -0.25,-1.57 -0.19,-0.64 -0.47,-1.64 -1.17,-1.99 -0.45,-0.23 -0.91,-0.09 -2.46,0.57 -2.01,0.85 -3.02,1.28 -4.48,2.08 -1.67,0.92 -1.7,1.05 -2.27,1.32 -3.58,1.72 -8.09,-0.49 -8.79,-0.85 -2.93,-1.49 -6.62,-4.84 -5.89,-7.03 0.62,-1.86 3.77,-0.86 6.24,-3.72 1.76,-2.04 1.13,-3.66 2.96,-5.61 1.89,-2 4.95,-1.29 5.14,-2.43 0.09,-0.53 -0.46,-1.07 -0.95,-1.45 -0.53,-3.06 -2.18,-5.3 -4.1,-5.54 -1.31,-0.17 -2.47,0.63 -3.28,1.2 -1.87,1.3 -2.21,2.57 -3.78,4.79 -1.68,2.38 -3.35,4.74 -6.15,5.64 -2.16,0.7 -4.09,0.24 -5.1,0 -3.56,-0.85 -5.6,-3.2 -6.15,-3.88 -0.59,-0.74 -1.87,-2.36 -2.27,-4.85 -0.11,-0.68 -0.52,-3.77 1.42,-6.77 1.79,-2.76 4.42,-3.68 5.61,-4.1 1.38,-0.48 4,-1.4 6.68,-0.31 1.45,0.59 3.43,1.96 4.66,4.03 0.54,0.91 0.61,1.39 1.17,1.61 1.27,0.48 2.28,-1.53 5.14,-2.36 2.1,-0.61 3.02,0.05 3.47,-0.63 0.89,-1.37 -2.32,-5 -3.91,-6.55 -0.89,-0.87 -2.39,-2.31 -4.79,-3.53 -4.3,-2.2 -8.34,-2.05 -10.19,-1.96 -2.45,0.12 -7.23,0.35 -11.63,3.81 -5.57,4.39 -6.49,10.78 -6.75,12.54 -0.21,1.49 -0.63,4.59 0.57,8.25 1.1,3.4 3,5.48 4.66,7.31 2.34,2.57 4.1,4.51 6.93,5.04 1.64,0.31 2.56,-0.06 3,0.6 0.84,1.27 -1.18,4.75 -4.1,6.24 -2.21,1.13 -4.41,0.85 -5.39,0.66 -11.12,1.66 -22.23,3.32 -33.34,4.98 -0.57,0.06 -1.8,0.28 -2.96,1.2 -0.4,0.31 -1.26,1.02 -1.7,2.27 -0.42,1.21 -0.23,2.25 -0.09,2.87 0.13,0.6 0.44,2.03 1.74,3.18 1.2,1.07 2.53,1.29 3.06,1.35 12.79,-0.02 25.59,-0.04 38.38,-0.06 l 2.65,2.01 -0.02,0.03 z"
           id="path1"
           style="fill:#1e1e1c;stroke-width:0px" />
        <path
           class="cls-3"
           d="m 289.92,169.48 c -0.09,-0.87 -0.17,-1.74 -0.26,-2.61 -0.41,-0.48 -0.78,-0.86 -1.07,-1.16 -0.63,-0.62 -0.92,-0.82 -1.29,-0.91 -0.21,-0.05 -0.55,-0.13 -0.82,0.06 -0.23,0.16 -0.3,0.42 -0.31,0.52 0.02,2.89 0.03,5.78 0.05,8.67 0.06,0.18 0.17,0.44 0.39,0.68 0.66,0.73 1.69,0.66 1.88,0.64 0.81,-0.06 1.36,-0.51 1.57,-0.68 l 0.37,-0.3 c -0.16,-1.64 -0.33,-3.27 -0.49,-4.91"
           id="path2"
           style="fill:#1e1e1c;stroke-width:0px" />
        <path
           class="cls-3"
           d="m 284.65,163.25 c -0.36,-0.23 -0.71,-0.25 -1.03,-0.27 -0.38,-0.02 -0.7,-0.05 -1,0.09 -0.75,0.36 -0.8,1.51 -0.8,1.6 l -1.4,5.69 c 0.02,0.2 0.08,0.54 0.27,0.91 0.94,1.79 4.08,2.26 4.57,1.52 0.07,-0.1 0.08,-0.22 0.08,-0.3 -0.02,-2.86 -0.05,-5.71 -0.08,-8.56 -0.09,-0.17 -0.27,-0.46 -0.61,-0.67 z"
           id="path3"
           style="fill:#1e1e1c;stroke-width:0px" />
        <path
           class="cls-3"
           d="m 270.92,142.76 c -0.72,0.81 -1.48,1.63 -2.27,2.46 -1.35,1.41 -2.69,2.72 -4,3.94 l 0.79,3.56 c 0.05,0.12 0.22,0.55 0.69,0.82 0.48,0.28 0.95,0.21 1.07,0.19 0.52,-0.38 1.05,-0.75 1.57,-1.13 0.38,-0.16 0.94,-0.42 1.54,-0.85 0.34,-0.24 3.8,-2.73 3.28,-5.74 -0.08,-0.44 -0.28,-1.16 -0.95,-1.96 -0.16,-0.23 -0.44,-0.58 -0.88,-0.88 -0.32,-0.21 -0.62,-0.34 -0.85,-0.41 v 0 z"
           id="path4"
           style="fill:#1e1e1c;stroke-width:0px" />
        <path
           class="cls-3"
           d="m 265.28,135.86 c -0.24,0.15 -0.47,0.61 -0.13,2.21 -0.54,2.03 -1.4,3.3 -2.08,4.1 -0.88,1.02 -1.73,1.53 -1.83,2.52 -0.1,0.99 0.59,1.86 1.17,2.43 l 1.26,0.88 c 0.26,-0.08 0.61,-0.22 0.98,-0.47 0.53,-0.37 0.84,-0.8 1.01,-1.07 1.24,-1.43 2.48,-2.86 3.72,-4.28 0.12,-0.45 0.27,-1.24 0.09,-2.18 -0.51,-2.66 -3.37,-4.63 -4.19,-4.13 v 0 z"
           id="path5"
           style="fill:#1e1e1c;stroke-width:0px" />
        <path
           class="cls-3"
           d="m 259.01,132.36 1.79,0.79 c 0.85,0.28 1.51,0.62 1.96,0.88 0.89,0.52 1.35,0.8 1.61,1.35 0.32,0.7 0.12,1.43 0,1.76 l -1.42,3.12 c -1.03,0.66 -1.39,1.32 -1.52,1.83 -0.15,0.62 -0.03,1.27 -0.47,1.61 -0.23,0.17 -0.5,0.2 -0.69,0.19 -0.3,0.04 -0.93,0.08 -1.54,-0.28 -0.52,-0.31 -0.77,-0.75 -1.01,-1.2 -0.28,-0.51 -0.41,-0.98 -0.47,-1.29 0.59,-2.92 1.18,-5.84 1.76,-8.76 z"
           id="path6"
           style="fill:#1e1e1c;stroke-width:0px" />
        <path
           class="cls-3"
           d="m 252.42,131.69 c 0.81,0.01 1.62,0.02 2.43,0.03 l 2.52,0.31 c 0.19,0.18 0.48,0.5 0.66,0.98 0.35,0.92 0.06,1.76 -0.03,1.99 -0.69,1.56 -1.39,3.11 -2.08,4.66 -0.27,0.14 -1.46,0.74 -2.3,0.22 -0.51,-0.32 -0.67,-0.92 -0.75,-1.32 -0.51,-2.32 -0.47,-5.62 -0.44,-6.87 v 0 z"
           id="path7"
           style="fill:#1e1e1c;stroke-width:0px" />
        <path
           class="cls-3"
           d="m 246,130.81 c 1.02,-1.07 3.4,-0.26 3.59,-0.19 0.5,0.17 1.38,0.49 1.89,1.39 0.33,0.58 0.36,1.16 0.35,1.48 0.23,1.66 0.46,3.32 0.69,4.98 0.09,0.15 0.6,1.04 0.28,1.42 -0.3,0.37 -1.22,0.05 -1.89,-0.19 -0.93,-0.33 -1.62,-0.78 -2.05,-1.1 -0.32,-0.29 -0.79,-0.75 -1.26,-1.39 -1.33,-1.78 -2.84,-5.1 -1.61,-6.4 v 0 z"
           id="path8"
           style="fill:#1e1e1c;stroke-width:0px" />
        <path
           class="cls-3"
           d="m 242.34,137.62 c -0.23,-0.37 -0.21,-0.58 -0.38,-1.7 -0.57,-3.74 -1.37,-4.97 -0.75,-5.54 0.25,-0.24 0.83,-0.45 2.36,0.16 l 0.91,0.85 c 0.58,1.65 1.16,3.3 1.74,4.95 0.16,0.16 0.37,0.37 0.63,0.63 1.07,1.08 1.31,1.36 1.23,1.61 -0.03,0.1 -0.12,0.24 -0.47,0.35 -1.47,0.16 -4.28,0.27 -5.26,-1.29 v 0 z"
           id="path9"
           style="fill:#1e1e1c;stroke-width:0px" />
        <path
           class="cls-3"
           d="m 223.39,99.22 c -0.23,-0.09 -0.95,-0.16 -2.69,2.27 l -0.34,1.52 c 0.28,0.27 0.82,0.73 1.64,0.96 0.46,0.13 0.82,0.24 1.13,0.13 1.24,-0.48 1.29,-4.49 0.25,-4.88 v 0 z"
           id="path10"
           style="fill:#1e1e1c;stroke-width:0px" />
        <path
           class="cls-3"
           d="m 222.85,104.81 c -1.42,-1.48 -3.64,-1.04 -3.78,-1.01 -0.33,0.23 -0.79,0.57 -1.3,1.05 -2.08,1.93 -3.41,4.52 -2.86,5.13 0.1,0.12 0.42,0.33 0.81,0.39 0.19,0.03 0.34,0.03 0.45,0.02 l 5,1.05 1.64,-1.05 c 1.44,-1.8 1.36,-4.22 0.04,-5.59 v 0 z"
           id="path11"
           style="fill:#1e1e1c;stroke-width:0px" />
        <path
           class="cls-3"
           d="m 213.09,112.96 c 0.17,-0.42 0.68,-1.71 1.93,-2.1 0.44,-0.13 0.82,-0.12 1.09,-0.08 1.75,0.38 3.5,0.75 5.25,1.13 -0.02,0.86 -0.26,1.49 -0.42,1.85 -0.21,0.45 -0.85,1.81 -2.01,1.93 -0.45,0.05 -0.83,-0.1 -1.05,-0.21 -1.13,-0.04 -2.27,-0.08 -3.4,-0.13 l -1.47,0.55 c -0.13,-0.43 -0.44,-1.63 0.08,-2.94 z"
           id="path12"
           style="fill:#1e1e1c;stroke-width:0px" />
        <path
           class="cls-3"
           d="m 218.89,116.19 -3.76,-0.02 -2.65,0.8 c -0.64,0.73 -0.99,1.43 -1.2,1.96 -0.53,1.35 -0.92,3.69 0.17,4.49 0.27,0.2 0.57,0.26 0.74,0.27 l 2.98,-1.72 c 0.82,-0.36 1.64,-0.71 2.46,-1.07 l 1.62,-1.49 0.15,-2 -0.1,-0.91 -0.4,-0.31 v 0 z"
           id="path13"
           style="fill:#1e1e1c;stroke-width:0px" />
        <path
           class="cls-3"
           d="m 218.12,121.38 c -0.6,-0.15 -1.09,0.6 -2.44,1.35 -1.02,0.57 -1.96,0.82 -2.58,0.95 -0.38,0.24 -1.13,0.81 -1.62,1.83 -0.2,0.42 -0.59,1.27 -0.38,2.35 0.2,1.04 0.82,1.68 1.07,1.91 0.13,0.06 0.36,0.13 0.63,0.08 0.71,-0.11 1,-0.89 1.01,-0.92 l 1.74,-1.66 2.44,-1.64 1.28,-1.57 c -0.26,-2.05 -0.75,-2.57 -1.16,-2.67 v 0 z"
           id="path14"
           style="fill:#1e1e1c;stroke-width:0px" />
        <path
           class="cls-3"
           d="m 218.83,126.3 c -0.46,0 -0.55,0.29 -1.81,1.01 -0.77,0.44 -0.95,0.45 -1.6,0.88 -0.16,0.1 -0.61,0.41 -1.05,0.8 -0.91,0.8 -1.76,1.55 -1.87,2.5 -0.12,1.04 0.73,1.83 2.4,3.4 1.34,1.26 1.86,1.24 2.12,1.16 0.2,-0.06 0.42,-0.23 0.71,-0.8 0.29,-0.56 0.71,-1.6 0.67,-3.15 0.45,-0.99 0.91,-1.97 1.36,-2.96 l 0.63,-1.81 c -0.67,-0.87 -1.21,-1.03 -1.57,-1.03 h -0.01 z"
           id="path15"
           style="fill:#1e1e1c;stroke-width:0px" />
        <path
           class="cls-3"
           d="m 222.61,128.57 c -0.08,-0.04 -0.77,-0.38 -1.43,-0.13 -0.17,0.06 -0.6,0.28 -1.3,1.85 -0.23,0.52 -0.52,1.24 -0.75,2.14 l -0.88,4.16 c 0.23,0.21 0.6,0.49 1.09,0.71 1,0.46 2.29,0.61 3.09,0.27 2.5,-1.06 2.35,-7.9 0.19,-9.01 v 0 z"
           id="path16"
           style="fill:#1e1e1c;stroke-width:0px" />
        <path
           class="cls-3"
           d="m 241.36,93.85 c 1,0.61 2.3,0.05 2.49,-0.03 l 1.52,-0.69 1.86,-2.23 -0.88,-0.31 -2.05,-0.09 -2.27,-0.69 -1.1,-0.53 c -1.15,1.86 -0.71,3.9 0.44,4.6 v -0.02 z"
           id="path17"
           style="fill:#1e1e1c;stroke-width:0px" />
        <path
           class="cls-3"
           d="m 240.79,87.04 c -0.12,0.63 0.06,1.19 0.22,1.54 0.55,0.37 1.39,0.86 2.52,1.2 1.08,0.32 1.93,0.35 2.77,0.38 1.55,0.05 2.38,0.08 3.31,-0.35 0.45,-0.2 1.5,-0.77 2.3,-2.23 l -0.13,-0.57 c -1.69,-0.33 -3.38,-0.65 -5.07,-0.98 l -2.93,-1.35 c -1.57,0.21 -2.77,1.18 -3,2.36 v 0 z"
           id="path18"
           style="fill:#1e1e1c;stroke-width:0px" />
        <path
           class="cls-3"
           d="m 246.5,84.93 c 1.16,0.31 2.08,0.62 2.65,0.82 0.92,0.27 1.85,0.55 2.77,0.82 0.48,0.03 1.28,0.01 2.08,-0.44 0.7,-0.4 1.64,-1.27 1.54,-2.18 -0.01,-0.1 -0.05,-0.47 -0.31,-0.63 -0.36,-0.22 -0.85,0.12 -1.26,0.25 -0.55,0.19 -1.43,0.18 -2.87,-0.79 -0.34,-0.35 -1.36,-1.31 -3,-1.54 -1.04,-0.15 -1.9,0.06 -2.36,0.22 -0.41,0.24 -0.98,0.63 -1.54,1.23 -0.52,0.55 -0.78,0.82 -0.73,1.1 0.1,0.53 1.17,0.64 3.02,1.13 v 0 z"
           id="path19"
           style="fill:#1e1e1c;stroke-width:0px" />
        <path
           class="cls-3"
           d="m 257,79.54 c -0.35,-0.48 -0.67,-0.49 -1.54,-0.98 -1.79,-0.99 -1.75,-1.69 -2.8,-1.92 -0.99,-0.21 -1.86,0.23 -2.52,0.57 -1.25,0.64 -2.71,1.99 -2.4,2.77 0.06,0.16 0.31,0.58 1.67,0.66 1,0.47 2,0.95 3,1.42 l 1.86,0.85 c 0.13,0.07 0.85,0.42 1.7,0.13 0.91,-0.31 1.25,-1.13 1.32,-1.32 0.3,-0.8 0.1,-1.64 -0.28,-2.18 v 0 z"
           id="path20"
           style="fill:#1e1e1c;stroke-width:0px" />
        <path
           class="cls-3"
           d="m 253.94,75.79 c 0.26,0.71 1.02,1.2 1.89,1.32 l 2.11,2.05 1.39,0.51 c 0.44,-0.26 1.04,-0.68 1.64,-1.32 0.75,-0.81 1.81,-1.96 1.48,-3.06 -0.38,-1.24 -2.29,-1.56 -2.4,-1.57 l -2.58,-0.82 -1.7,-0.13 c -1.52,0.5 -2.22,1.98 -1.83,3.02 z"
           id="path21"
           style="fill:#1e1e1c;stroke-width:0px" />
        <path
           class="cls-3"
           d="m 260.71,68.32 c -1.38,-0.14 -1.86,-0.02 -2.23,0.16 -0.13,0.06 -1.21,0.57 -1.61,1.79 -0.05,0.14 -0.46,1.46 0.13,1.96 0.49,0.4 1.17,-0.16 2.23,-0.09 0.72,0.05 1.64,0.38 2.68,1.54 l 1.1,0.28 1.17,-0.66 c 0.3,-0.34 0.84,-1.03 1.04,-2.05 0.11,-0.54 0.19,-0.94 0.03,-1.35 -0.45,-1.17 -2.4,-1.36 -4.54,-1.57 v 0 z"
           id="path22"
           style="fill:#1e1e1c;stroke-width:0px" />
        <path
           class="cls-3"
           d="m 258.48,67.35 c 0.21,0.16 0.46,0.21 1.7,0.13 1.66,-0.11 1.87,-0.24 2.52,-0.25 2,-0.03 2.76,1.22 3.37,0.79 0.75,-0.52 -0.5,-2.28 0.44,-4.22 0.53,-1.1 1.46,-1.63 1.29,-1.92 -0.16,-0.27 -1.06,-0.03 -1.76,0.19 l -6.08,1.29 c -0.26,0.06 -1.11,0.28 -1.64,1.07 -0.64,0.96 -0.55,2.41 0.16,2.93 v -0.02 z"
           id="path23"
           style="fill:#1e1e1c;stroke-width:0px" />
        <path
           class="cls-3"
           d="m 263.83,61.49 c 1.72,-0.33 2.24,0.24 3.24,-0.41 0.2,-0.13 1.27,-0.85 1.2,-1.89 -0.03,-0.45 -0.26,-0.78 -0.41,-0.98 l -0.16,-2.36 -1.35,0.22 c -1.42,-0.03 -3.63,0.16 -5.64,1.42 -1.36,0.85 -1.62,1.57 -1.7,1.89 -0.28,1.1 0.32,2.11 0.38,2.21 0.18,0.3 0.38,0.63 0.75,0.82 0.94,0.49 1.71,-0.54 3.69,-0.91 v 0 z"
           id="path24"
           style="fill:#1e1e1c;stroke-width:0px" />
        <path
           class="cls-3"
           d="m 254.4,41.74 c 0.16,-0.19 0.5,-0.52 3.28,-1.35 1.26,-0.38 1.54,-0.41 1.93,-0.75 0.13,-0.12 0.94,-0.82 0.84,-1.68 -0.02,-0.19 -0.09,-0.4 -1.22,-1.56 -1.06,-1.09 -1.23,-1.13 -1.39,-1.13 -0.51,0 -0.62,0.54 -1.64,1.39 -0.31,0.26 -0.77,0.53 -1.68,1.09 -1.45,0.88 -1.58,0.85 -2.01,1.26 -0.43,0.41 -1.15,1.09 -1.09,2.01 0.03,0.56 0.37,1.29 1.01,1.52 0.56,0.19 1.12,-0.09 1.26,-0.17 0.38,-0.2 0.57,-0.46 0.71,-0.63 z"
           id="path25"
           style="fill:#1e1e1c;stroke-width:0px" />
        <path
           class="cls-3"
           d="m 254.68,35.56 c 0.68,-0.51 0.97,-0.56 1.39,-1.05 0.24,-0.28 0.7,-0.82 0.71,-1.56 0,-0.57 -0.27,-0.98 -0.84,-1.76 -0.7,-0.98 -1.1,-1.54 -1.6,-1.52 -0.48,0.03 -0.6,0.59 -1.43,1.76 -0.89,1.27 -1.15,1.17 -2.23,2.65 -1.12,1.53 -1.17,2.08 -1.18,2.35 -0.01,0.61 0.2,1.57 0.84,1.85 0.84,0.37 2.03,-0.64 2.82,-1.3 0.73,-0.62 0.7,-0.82 1.52,-1.43 v 0 z"
           id="path26"
           style="fill:#1e1e1c;stroke-width:0px" />
        <path
           class="cls-3"
           d="m 248.56,34.81 c 0.68,-0.02 1.58,-1.07 3.36,-3.19 0.05,-0.06 0.6,-0.71 1.18,-1.68 0.67,-1.11 0.67,-1.47 0.67,-1.6 -0.02,-0.89 -0.78,-1.52 -1.13,-1.81 -0.26,-0.22 -1.01,-0.84 -2.01,-0.84 -1.39,0 -2.34,1.15 -3.15,2.14 -0.52,0.63 -1.2,1.47 -1.43,2.77 -0.12,0.66 -0.31,1.74 0.34,2.77 0.06,0.1 0.95,1.46 2.18,1.43 v 0 z"
           id="path27"
           style="fill:#1e1e1c;stroke-width:0px" />
        <path
           class="cls-3"
           d="m 240.28,20.65 c 0.35,-0.06 0.16,-0.75 0.92,-1.52 0.39,-0.39 0.67,-0.42 1.6,-1.18 0.3,-0.24 0.44,-0.38 0.55,-0.46 0.84,-0.7 2.44,-1.18 3.7,-0.92 2.12,0.43 2.57,2.84 3.53,2.61 0.85,-0.2 1.13,-2.28 0.96,-3.66 -0.08,-0.64 -0.31,-2.69 -1.72,-3.23 -1.07,-0.42 -2.24,0.25 -2.31,0.3 -0.98,0.58 -0.98,1.4 -1.72,1.64 -0.71,0.22 -0.98,-0.71 -2.18,-0.84 -0.54,-0.06 -0.96,0.06 -1.6,0.25 -0.52,0.15 -1.24,0.36 -1.93,0.92 -0.23,0.19 -1.08,0.87 -1.39,1.97 -0.55,1.99 0.95,4.22 1.6,4.12 v 0 z"
           id="path28"
           style="fill:#1e1e1c;stroke-width:0px" />
      </g>
      <path
         class="cls-3"
         d="m -31.85129,-16.06652 c -0.06,0.12 0.09,0.28 0.12,0.69 0.01,0.21 -0.02,0.25 -0.02,0.51 0,0.26 0.04,0.46 0.07,0.6 0,0.12 -0.02,0.3 -0.02,0.51 -0.01,0.49 0,0.86 0,0.99 0.02,0.67 0.01,1.34 0.03,2 0.02,0.86 0.05,5.5 0.09,17.63 -5.36,0.97 -9.71,2.51 -12.83,3.84 -4.79,2.04 -7.71,3.99 -8.76,4.72 -5.69,3.94 -7.85,7.33 -8.46,8.32 0,0 -1.64,2.69 -2.74,6.96 -0.66,2.55 -0.64,3.86 -0.24,4.96 0.38,1.04 1.03,1.67 1.46,2 h 95.91 c 0.2,-0.08 0.52,-0.23 0.82,-0.58 0.56,-0.66 0.67,-1.56 0.73,-2.04 0.34,-3 -0.96,-6.3 -0.96,-6.3 -1.92,-4.85 -4.6,-7.9 -4.84,-8.16 -4.25,-4.74 -8.34,-6.93 -14.23,-9.48 -3.17,-1.37 -7.53,-2.95 -12.87,-4.02 v -23.22 h -4.52 c 0.08,8.78 0.15,17.56 0.23,26.34 0,0.2 0,0.5 0.09,0.84 0.22,0.86 0.77,1.29 0.96,1.44 0.17,0.13 0.41,0.28 0.82,0.41 0.88,0.26 1.6,0.12 1.87,0.07 0.63,-0.1 1.4,0.13 2.97,0.6 2.93,0.88 6.16,2.33 9.99,3.96 2.4,1.02 2.05,0.84 2.42,1.02 4.58,2.21 7.51,5.25 8.21,6 1.42,1.52 3.34,3.88 5.15,7.32 h -89.47 c 0.34,-1.06 0.9,-2.56 1.82,-4.14 1.73,-2.97 3.67,-4.4 6.48,-6.42 3.23,-2.33 5.92,-3.54 7.67,-4.32 2.52,-1.12 4.55,-1.76 6.03,-2.22 1.75,-0.55 3.59,-1.02 7.26,-1.98 0.39,-0.1 1.44,0.2 2.33,-0.6 0.61,-0.55 0.92,-1.34 1.1,-1.92 v -26.4 h -3.25 c -0.37,0.1 -0.66,0.09 -0.85,0.06 -0.27,-0.03 -0.46,-0.12 -0.52,0 h -0.02 z"
         id="path29"
         style="fill:#1e1e1c;stroke-width:0px" />
      <path
         class="cls-3"
         d="m 95.85871,-47.19652 h -218.34 c -5.98,0 -12.19,0.48 -18.16,0 -4.38,-0.35 -3.78,-4.59 -3.78,-7.71 v -122.97 c 0,-10.18 -0.33,-20.42 0,-30.59 0.1,-3.12 2.22,-4.35 5.02,-4.35 h 233.92 c 2.8,0 4.97,1.1 5.11,4.31 0.15,3.37 0,6.79 0,10.16 v 143.23 c 0,3.08 0.66,7.68 -3.77,7.91 -4.82,0.24 -4.86,7.78 0,7.53 6.34,-0.33 11.06,-4.97 11.31,-11.35 0.03,-0.79 0,-1.59 0,-2.38 v -123.29 c 0,-10.58 0.13,-21.16 0,-31.73 -0.09,-6.76 -4.91,-11.82 -11.73,-11.93 -2.48,-0.04 -4.97,0 -7.46,0 h -201.52 c -8.65,0 -17.29,-0.04 -25.94,0 -6.72,0.03 -12.19,4.32 -12.46,11.38 -0.1,2.75 0,5.53 0,8.28 v 145.38 c 0,4.59 -0.17,9.08 3.59,12.57 3.18,2.96 6.88,3.08 10.84,3.08 h 233.39 c 4.85,0 4.86,-7.53 0,-7.53 v 0 z"
         id="path30"
         style="fill:#1e1e1c;stroke-width:0px" />
      <path
         class="cls-3"
         d="m 122.81871,-24.67652 h -273.77 c -7.38,0 -15,0.55 -22.36,0 -5.49,-0.41 -4.73,-5.8 -4.73,-9.71 v -154.31 c 0,-12.64 -0.12,-25.28 0,-37.92 0.04,-3.96 2.84,-5.43 6.32,-5.43 h 292.93 c 3.48,0 6.28,1.46 6.32,5.43 0.04,4.24 0,8.49 0,12.73 v 179.49 c 0,3.81 0.77,9.47 -4.72,9.71 -6.05,0.26 -6.08,9.7 0,9.44 7.94,-0.34 13.91,-6.32 14.16,-14.29 0.03,-1.1 0,-2.21 0,-3.31 v -154.44 c 0,-13.11 0.13,-26.23 0,-39.34 -0.08,-8.52 -6.32,-14.79 -14.84,-14.87 -3.26,-0.03 -6.52,0 -9.79,0 h -284.23 c -8.43,0 -15.3,5.5 -15.57,14.32 -0.12,3.63 0,7.27 0,10.9 v 181.67 c 0,6.34 0.09,12.44 5.97,16.69 3.9,2.82 8.1,2.66 12.55,2.66 h 291.78 c 6.07,0 6.08,-9.44 0,-9.44 v 0 z"
         id="path31"
         style="fill:#1e1e1c;stroke-width:0px" />
      <path
         class="cls-3"
         d="m 195.73871,-123.78652 c -0.08,45.58 -14.28,90.26 -40.7,127.43 -25.57,35.97 -62.23,63.96 -103.73,79.01 -43.34,15.72 -91.27,17.45 -135.62,4.79 -42.69,-12.18 -80.98,-37.49 -109.24,-71.68 -28.53,-34.51 -45.99,-77.83 -49.36,-122.48 -3.44,-45.63 7.32,-91.63 31.04,-130.78 22.89,-37.79 57.12,-68.11 97.31,-86.44 41.79,-19.07 89.67,-24.31 134.65,-15.11 43.8,8.96 84.19,31.4 115.04,63.74 30.86,32.36 51.26,73.86 58.11,118.05 1.71,11.06 2.48,22.26 2.5,33.45 0.01,5.5 8.57,5.51 8.56,0 -0.09,-47.1 -14.71,-93.67 -42.09,-132.05 -26.78,-37.55 -64.57,-66.49 -107.89,-82.37 -44.88,-16.45 -94.94,-18.16 -140.89,-5.06 -44.24,12.62 -84.31,38.9 -113.5,74.46 -29.7,36.19 -47.75,80.87 -51.35,127.55 -3.64,47.15 7.67,95.05 32.18,135.51 23.73,39.17 59.32,70.96 101.08,89.83 43.73,19.76 93.11,25.26 140.14,15.72 45.29,-9.18 87.33,-32.61 119.2,-66.02 32,-33.55 53.49,-76.73 60.43,-122.61 1.75,-11.57 2.66,-23.24 2.69,-34.94 0.01,-5.51 -8.54,-5.51 -8.56,0 z"
         id="path32"
         style="fill:#1e1e1c;stroke-width:0px" />
      <path
         class="cls-3"
         d="m 0.66871,-162.83652 c -4.55,0.75 -9.08,1.51 -13.63,2.26 -7.24,1.2 -14.48,2.4 -21.73,3.6 -1.67,0.28 -3.33,0.55 -4.99,0.83 -0.77,0.13 -1.21,1.09 -1.02,1.79 0.23,0.82 1.01,1.14 1.79,1.02 4.55,-0.75 9.08,-1.51 13.63,-2.26 7.24,-1.2 14.48,-2.4 21.73,-3.6 1.67,-0.28 3.33,-0.55 4.99,-0.83 0.77,-0.13 1.21,-1.09 1.02,-1.79 -0.23,-0.82 -1.01,-1.14 -1.79,-1.02 z"
         id="path33"
         style="fill:#1e1e1c;stroke-width:0px" />
      <path
         class="cls-3"
         d="m -39.68129,-153.33652 c 1.99,0.38 3.97,0.75 5.96,1.13 4.74,0.89 9.49,1.79 14.23,2.69 5.76,1.09 11.52,2.17 17.28,3.26 4.96,0.93 9.92,1.87 14.88,2.81 2.42,0.46 4.84,0.95 7.26,1.37 0.03,0 0.07,0.01 0.1,0.02 0.77,0.15 1.57,-0.21 1.79,-1.02 0.2,-0.71 -0.24,-1.64 -1.02,-1.79 -1.99,-0.38 -3.97,-0.75 -5.96,-1.13 -4.74,-0.89 -9.49,-1.79 -14.23,-2.69 -5.76,-1.09 -11.52,-2.17 -17.28,-3.26 l -14.88,-2.81 c -2.42,-0.46 -4.84,-0.95 -7.26,-1.37 -0.03,0 -0.07,-0.01 -0.1,-0.02 -0.77,-0.15 -1.57,0.21 -1.79,1.02 -0.2,0.71 0.24,1.64 1.02,1.79 z"
         id="path34"
         style="fill:#1e1e1c;stroke-width:0px" />
      <path
         class="cls-3"
         d="m 20.42871,-144.92652 c -2.93,0.36 -5.85,0.72 -8.77,1.08 -6.97,0.86 -13.94,1.71 -20.91,2.57 -8.42,1.03 -16.85,2.07 -25.27,3.11 -7.32,0.9 -14.65,1.8 -21.97,2.7 -3.54,0.44 -7.07,0.86 -10.61,1.31 -0.05,0 -0.1,0.01 -0.15,0.02 -0.78,0.09 -1.45,0.6 -1.45,1.45 0,0.71 0.67,1.55 1.45,1.45 2.93,-0.36 5.85,-0.72 8.77,-1.08 6.97,-0.86 13.94,-1.71 20.91,-2.57 8.42,-1.03 16.85,-2.07 25.27,-3.11 7.32,-0.9 14.65,-1.8 21.97,-2.7 3.54,-0.44 7.07,-0.86 10.61,-1.31 0.05,0 0.1,-0.01 0.15,-0.02 0.78,-0.09 1.45,-0.6 1.45,-1.45 0,-0.71 -0.67,-1.55 -1.45,-1.45 z"
         id="path35"
         style="fill:#1e1e1c;stroke-width:0px" />
      <path
         class="cls-3"
         d="m -67.63129,-131.29652 c 2.8,0.41 5.59,0.81 8.39,1.22 6.71,0.98 13.43,1.95 20.14,2.93 8.12,1.18 16.24,2.36 24.36,3.54 7.02,1.02 14.04,2.04 21.05,3.06 3.41,0.49 6.81,1 10.22,1.49 0.05,0 0.09,0.01 0.14,0.02 0.77,0.11 1.56,-0.19 1.79,-1.02 0.19,-0.68 -0.23,-1.67 -1.02,-1.79 -2.8,-0.41 -5.59,-0.81 -8.39,-1.22 -6.71,-0.98 -13.43,-1.95 -20.14,-2.93 -8.12,-1.18 -16.24,-2.36 -24.36,-3.54 l -21.05,-3.06 c -3.41,-0.49 -6.81,-1 -10.22,-1.49 -0.05,0 -0.09,-0.01 -0.14,-0.02 -0.77,-0.11 -1.56,0.19 -1.79,1.02 -0.19,0.68 0.23,1.67 1.02,1.79 z"
         id="path36"
         style="fill:#1e1e1c;stroke-width:0px" />
      <path
         class="cls-3"
         d="m 16.32871,-121.70652 c -2.53,1.21 -5.05,2.41 -7.58,3.62 -6.02,2.87 -12.04,5.74 -18.06,8.61 -7.3,3.48 -14.6,6.96 -21.9,10.44 -6.31,3.01 -12.61,6.01 -18.92,9.03 l -6.22,2.97 c -0.98,0.47 -2,0.89 -2.95,1.41 -0.04,0.02 -0.09,0.04 -0.13,0.06 -0.71,0.34 -0.89,1.35 -0.52,1.99 0.42,0.73 1.28,0.86 1.99,0.52 2.53,-1.21 5.05,-2.41 7.58,-3.62 6.02,-2.87 12.04,-5.74 18.06,-8.61 7.3,-3.48 14.6,-6.96 21.9,-10.44 6.31,-3.01 12.61,-6.01 18.92,-9.03 2.07,-0.99 4.14,-1.97 6.22,-2.97 0.98,-0.47 2,-0.89 2.95,-1.41 0.04,-0.02 0.09,-0.04 0.13,-0.06 0.71,-0.34 0.89,-1.35 0.52,-1.99 -0.42,-0.73 -1.28,-0.86 -1.99,-0.52 z"
         id="path37"
         style="fill:#1e1e1c;stroke-width:0px" />
      <path
         class="cls-3"
         d="m -59.72129,-83.29652 c 1.45,1.14 2.88,2.29 4.33,3.43 3.44,2.73 6.89,5.46 10.33,8.18 4.19,3.31 8.37,6.63 12.56,9.95 3.6,2.86 7.21,5.71 10.82,8.57 1.76,1.4 3.53,2.8 5.3,4.2 0.02,0.02 0.05,0.04 0.08,0.06 0.62,0.49 1.45,0.6 2.05,0 0.51,-0.51 0.62,-1.56 0,-2.05 -1.45,-1.14 -2.88,-2.29 -4.33,-3.43 -3.44,-2.73 -6.89,-5.46 -10.33,-8.18 -4.19,-3.31 -8.37,-6.63 -12.56,-9.95 -3.6,-2.86 -7.21,-5.71 -10.82,-8.57 -1.76,-1.4 -3.53,-2.8 -5.3,-4.2 -0.02,-0.02 -0.05,-0.04 -0.08,-0.06 -0.62,-0.49 -1.45,-0.6 -2.05,0 -0.51,0.51 -0.62,1.56 0,2.05 z"
         id="path38"
         style="fill:#1e1e1c;stroke-width:0px" />
      <path
         class="cls-3"
         d="m -10.45129,-106.79652 c 3.49,3.34 6.99,6.68 10.49,10.01 5.57,5.32 11.13,10.63 16.69,15.95 1.27,1.21 2.54,2.43 3.81,3.63 1.35,1.29 3.41,-0.76 2.05,-2.05 -3.49,-3.34 -6.99,-6.68 -10.49,-10.01 -5.57,-5.32 -11.13,-10.63 -16.69,-15.95 -1.27,-1.21 -2.54,-2.43 -3.81,-3.63 -1.35,-1.29 -3.41,0.76 -2.05,2.05 z"
         id="path39"
         style="fill:#1e1e1c;stroke-width:0px" />
      <path
         class="cls-3"
         d="m 21.94871,-76.82652 c 3,-1 6,-2.01 8.99,-3.01 4.78,-1.6 9.55,-3.2 14.33,-4.81 1.1,-0.37 2.2,-0.74 3.3,-1.1 1.76,-0.59 1,-3.4 -0.77,-2.8 -3,1 -6,2.01 -8.99,3.01 -4.78,1.6 -9.55,3.2 -14.33,4.81 -1.1,0.37 -2.2,0.74 -3.3,1.1 -1.76,0.59 -1,3.4 0.77,2.8 z"
         id="path40"
         style="fill:#1e1e1c;stroke-width:0px" />
      <path
         class="cls-3"
         d="m -36.60129,-96.06652 c -4.09,-1.68 -8.18,-3.36 -12.28,-5.04 -6.52,-2.68 -13.03,-5.35 -19.55,-8.02 -1.49,-0.61 -2.98,-1.22 -4.47,-1.83 -0.73,-0.3 -1.6,0.33 -1.79,1.02 -0.23,0.83 0.28,1.49 1.02,1.79 4.09,1.68 8.18,3.36 12.28,5.04 6.52,2.68 13.03,5.35 19.55,8.02 1.49,0.61 2.98,1.22 4.47,1.83 0.73,0.3 1.6,-0.33 1.79,-1.02 0.23,-0.83 -0.28,-1.49 -1.02,-1.79 z"
         id="path41"
         style="fill:#1e1e1c;stroke-width:0px" />
      <path
         class="cls-3"
         d="m -74.02129,-110.81652 c -3.42,1.87 -6.83,3.74 -10.25,5.61 -5.42,2.97 -10.84,5.93 -16.27,8.89 -1.25,0.68 -2.5,1.36 -3.74,2.05 -1.64,0.89 -0.17,3.4 1.46,2.51 3.42,-1.87 6.83,-3.74 10.25,-5.61 5.42,-2.97 10.84,-5.93 16.27,-8.89 1.25,-0.68 2.5,-1.36 3.74,-2.05 1.64,-0.89 0.17,-3.4 -1.46,-2.51 z"
         id="path42"
         style="fill:#1e1e1c;stroke-width:0px" />
      <path
         d="m 417.85596,-344.576 c -5.16627,20.16418 -14.47754,39.08485 -28.72447,54.40568 -6.57222,14.73035 -10.54564,26.81747 -26.96273,33.34528 -15.58459,12.60049 -11.8439,29.22506 8.63696,29.6709 1.95279,19.3519 -11.9522,40.88202 -30.30033,41.67999 -18.89146,-2.11859 -25.64135,13.98455 -38.44111,23.2622 7.39225,6.71277 3.19766,6.57511 8.94742,14.40513 -3.81933,11.86733 -29.00983,32.0239 -20.72637,26.40069 -3.93646,17.29583 -33.46802,-0.93852 -43.42423,17.48034 -10.72012,14.089665 -21.12216,35.453375 -43.27046,26.982975 -30.09528,-0.60236 0.3894,28.56293 10.26241,36.90313 10.80879,8.83547 32.54076,34.5588099 44.67109,21.38425 1.87597,-11.52356 11.62531,-2.04482 10.20141,-17.20837 10.15396,-7.37506 8.06214,-28.75779 17.93135,-26.16097 10.39322,-11.85667 22.67125,14.24862 31.39309,21.70444 5.40751,6.30649 24.85585,1.01154 15.52572,10.25405 8.8414,2.04238 19.04677,-1.31119 20.63328,10.57181 7.26432,5.86582 4.48877,59.90035 1.26555,53.59964 8.69842,15.27779 -11.34817,35.07736 11.53254,42.73336 16.43367,9.45319 35.95,32.439755 55.9108,22.11194 13.56822,-16.40416 -9.96656,-32.83601 -8.47938,-50.53402 4.30228,-16.66822 -12.84022,-38.9476401 -0.92027,-49.7978001 9.76213,-6.40065 -12.00209,-17.4176799 -4.2069,-30.3844599 5.80984,-10.61606 27.16747,1.86594 38.538,-0.52325 16.84452,-0.79554 34.96631,4.84592 49.19986,-6.45358 18.22491,-9.13908 24.27768,-32.59157 27.40978,-51.10413 0.8868,-17.899405 -4.47052,-35.682905 -15.09845,-49.577705 -11.67673,-11.31593 -29.52122,-14.45305 -36.16402,-25.24602 -9.86921,3.07414 -19.18093,-4.2419 -7.41324,-6.81469 16.22087,3.8779 35.18839,9.15338 49.12517,-3.4456 20.69549,-11.18937 29.20848,-32.73607 29.87731,-55.19437 -0.0152,-21.69957 18.97072,-40.10489 17.46848,-60.4986 -16.00624,4.17968 -27.22436,23.12043 -44.44855,28.71641 -9.87514,2.25884 -18.56154,23.39941 -22.1419,5.1465 -8.95822,-6.00683 -20.49866,1.45873 -23.3953,-11.58015 -23.20104,9.12129 -27.66989,-13.63332 -32.99359,-31.43751 -8.49489,-10.10132 -9.39386,-45.26857 -21.41847,-44.79734 z m 4.52223,15.56513 c 1.28837,18.19176 16.04959,41.62386 6.31029,57.10715 -12.93179,7.60307 -23.24318,2.09836 -37.65988,1.66728 -14.54339,2.93938 -0.26315,-17.665 -1.77877,-14.70829 4.10484,-8.44834 12.76249,-12.03677 16.10405,-21.79646 6.77361,-5.56297 17.25324,-35.15828 12.60719,-27.7385 4.03259,-7.69829 2.47042,0.65255 4.41712,5.46882 z m 137.24635,47.95742 c -1.17277,4.0653 -10.59827,21.04626 -12.8997,30.82116 -6.26131,9.87895 -5.71447,25.59953 -7.18766,35.33047 5.1719,7.03828 -25.8111,39.51668 -9.57046,21.45452 -6.95158,11.19971 -23.28471,19.56714 -21.2443,18.72019 -8.53627,3.97768 -13.91503,7.43834 -25.24069,4.52239 -19.8233,2.7325 -17.89028,-10.96973 -4.33605,-19.6321 17.94427,-10.93306 27.7715,-28.36306 37.51841,-46.15705 15.35657,-13.35268 27.69559,-35.31632 42.96045,-45.05958 z m -113.6883,11.77895 c 4.69229,9.94512 6.3363,27.94948 -2.83959,33.23363 19.8061,-5.24841 -3.19112,-27.57163 19.04357,-23.98487 12.17003,2.81723 37.01021,9.87559 16.93761,23.68247 6.01398,2.13624 12.44322,-23.91946 17.9709,-8.95259 -5.46775,9.88579 -6.04212,17.09627 1.31423,2.78696 6.95645,-4.31688 13.32576,-4.98023 21.40204,-11.83158 17.2896,-8.17424 -14.86754,24.00541 -9.88594,19.28559 -0.96894,9.3423 -2.18065,0.66928 -6.94124,13.7903 -7.23831,11.69666 -1.50132,8.72169 -5.36355,12.14706 5.49346,-14.67635 -23.27117,-21.27869 -27.43625,-16.68253 16.8141,-3.91166 36.10698,13.85526 16.47231,24.97785 -6.04258,1.00393 8.56638,-14.80472 -6.02508,-13.85997 -10.60664,-0.67689 8.94924,1.50589 -0.15364,1.55502 -16.97685,8.4552 -35.47648,20.51601 -55.56688,14.6981 -20.52786,-3.12617 -33.79414,-20.39021 -50.65448,-30.65749 -6.77681,-7.86014 -20.36769,-14.44939 -5.00762,-24.19022 11.10739,-13.18338 31.52619,-12.99386 43.36826,-11.02844 6.10677,4.66263 9.54354,-8.80672 15.2101,-3.51009 3.70251,-2.81419 16.34377,-10.72437 18.15495,-1.45874 z m -70.25326,45.95916 c 11.06144,3.76792 -3.98878,35.82954 -15.00049,43.5905 -6.11026,5.15638 -13.3361,-5.75463 -5.29845,6.24093 7.28151,8.22626 13.35009,16.46318 23.63806,17.00378 8.50691,4.49759 10.37376,-2.36988 18.64124,2.47148 -14.41441,6.06387 -30.0428,22.3541 -40.82346,1.21688 -10.58701,-14.61124 13.51423,2.77206 0.79098,-8.07385 -10.12171,-4.97567 -23.98107,-28.26723 -3.42872,-23.10385 15.61593,-8.8271 19.73325,-33.03497 19.2722,-31.98465 5.01233,0.0304 5.13417,-5.26073 1.35378,-7.91399 z m 111.05907,13.35649 c -4.39978,7.32379 -19.35296,18.53233 -13.02792,18.41779 -2.72597,7.96388 -5.27959,8.99823 -13.30385,17.89195 -8.42386,10.81579 8.1388,-8.48302 -2.27435,6.49419 -2.74377,9.47798 -13.29519,4.48771 -20.58628,5.49741 -17.66287,0.36355 17.97972,-30.16191 15.61699,-22.26694 9.37941,-8.58159 18.96448,-30.20009 33.57541,-26.0344 z m -94.33715,3.99638 c 9.50536,9.72593 46.69673,15.91042 36.53167,14.0238 -13.83046,3.45503 -24.04267,13.56244 -33.84982,0.20078 -12.63122,-2.09471 -16.58517,-0.75599 -10.89823,-14.51343 2.88294,0.91266 5.36857,-3.56957 8.21638,0.28901 z m 53.1106,14.19796 c 14.05482,13.57689 -17.30815,-4.25756 0,0 z m -48.48311,10.93763 c 15.76089,4.19444 -20.32191,12.7123 -5.46881,10.30653 10.64268,-6.77027 40.15417,-13.70619 38.8585,4.96776 -16.46668,5.53316 -34.40183,11.08487 -52.18031,5.8783 -33.7984,-4.49288 6.36536,-33.64052 18.79062,-21.15259 z m -62.05012,9.57047 c 16.75645,5.81273 10.92531,32.69333 -9.68956,20.60863 -12.25566,-4.08111 -2.91017,-20.39538 7.90835,-21.73273 z m 131.46206,14.72365 c 10.88606,-0.324 51.02746,29.69813 30.0784,20.19261 -14.21849,-18.22674 18.41491,5.33435 7.48032,2.73433 11.03939,30.23752 10.23123,69.290275 -13.68519,93.180385 -1.80144,-1.86092 6.9423,-15.40298 -2.48472,-2.69509 -10.21982,12.55791 -32.04792,3.58949 -47.66248,5.28643 -9.82646,-0.96742 -25.05071,3.04647 -11.38681,-9.01556 20.09207,-26.65395 26.11061,-65.464095 10.94736,-95.695515 11.6743,-2.25002 47.50505,7.36228 45.02261,3.98148 -21.47003,-6.49739 -46.89417,0.62821 -61.9844,-19.45123 10.7411,-3.99563 30.84792,-1.09672 43.67491,1.48155 z m -47.53668,-0.84117 c 28.1139,10.82735 30.87622,46.17758 25.4112,71.674895 -3.93478,19.7191 -14.11003,44.96071 -36.25681,48.94143 14.18975,-7.63669 26.40327,-29.08072 29.22933,-48.03881 5.0499,-22.468185 4.36769,-50.994765 -14.48088,-66.687965 -7.21778,1.22601 9.32906,10.23883 7.0722,11.03513 4.93309,7.06704 -2.17989,36.62203 5.95724,33.4516 -17.6869,2.67546 -8.19721,-18.69494 -16.67735,-27.42713 -6.47821,-7.84264 -16.54501,-15.96061 -24.98834,-16.95465 8.09211,-3.46993 32.68648,-5.66914 26.36022,-2.0407 -11.11803,-2.77906 -20.03168,-7.68385 -1.62681,-3.9538 z m -49.74517,17.24776 c 10.46821,4.78006 -36.44208,20.61047 -20.92883,17.77376 -11.69529,2.27162 -3.7918,-27.99023 -7.61174,-6.49175 1.60719,8.39344 -25.35706,4.42564 -5.84985,6.70197 10.91861,-1.78349 17.79323,1.26404 10.62215,10.93763 7.67243,-14.79469 28.93879,-30.60851 43.85562,-25.87165 2.70756,16.02952 -43.03544,12.70059 -12.89148,14.60257 18.05349,-4.2355 29.88689,27.459385 5.18391,18.53432 -12.48794,-4.83665 -22.05733,6.418745 -4.73686,8.661455 13.6966,-2.13274 30.12692,13.04724 9.35507,17.8591 -8.34689,1.442 -27.09004,-2.44943 -8.62722,2.10505 18.14719,-5.81654 17.85666,15.84135 -0.71188,11.45495 -15.82477,2.23891 -30.8782,-12.45599 -32.72862,-15.53196 -18.45992,0.1369 -40.809,-10.84758 -41.66021,-31.156415 -13.87944,10.24112 17.69877,-47.73854 8.62053,-24.88415 -3.00995,-20.27126 25.84199,5.56328 36.86525,-6.693 11.2271,-9.94374 9.29378,-4.95863 21.24431,1.99812 z m 22.29599,-7.25671 c 4.06179,-4.23688 25.61488,10.19928 9.36009,4.21999 -2.49415,-1.75307 -18.39665,-4.46717 -9.36009,-4.21999 z m 11.77895,7.78256 c 17.56019,12.73435 17.46452,38.63003 12.19968,57.738105 3.40392,15.47249 -19.45488,41.23508 -28.18554,19.03567 12.12971,-4.47842 -0.45633,-23.31574 15.19549,-11.27942 21.43551,13.58359 -14.65596,-12.03419 -5.05963,-5.27153 12.22584,-16.74215 -32.90994,-17.73406 -11.39777,-21.941125 9.05786,-4.41789 28.40413,13.628315 11.46348,-1.05108 7.4867,-13.80141 -9.10197,-15.93992 -12.5284,-24.01803 8.92978,-3.01787 4.28966,-25.02014 18.31269,-13.21198 z m 8.72899,0.63125 c 7.66285,9.95272 -12.17231,-7.20226 0,0 z m 3.5758,5.04808 c 9.75984,15.58946 8.64001,35.057735 3.89128,21.77015 -0.12169,-5.08595 -7.89695,-25.00751 -3.89128,-21.77015 z m 93.91642,6.73087 c 1.32336,-2.79441 10.90477,12.18524 4.52239,9.46521 -5.26712,1.28989 -8.95092,-20.13056 -4.52239,-9.46521 z m 7.46709,14.72381 c 7.43909,16.120935 -7.24668,16.326745 -5.36173,0.0761 -2.34539,-8.06412 2.69371,-3.74373 5.36173,-0.0761 z m -222.43363,1.26251 c 9.43752,7.97316 11.0225,20.428085 15.86265,31.201135 4.60026,7.50709 -10.11167,7.09502 3.48849,10.97201 -13.47863,-0.0456 -1.75885,9.25635 -15.51249,4.18044 3.18153,-1.8527 -14.12723,-2.06003 -8.61232,-13.25472 -2.66026,-18.94228 -14.90923,-27.347585 -31.65122,-31.100595 12.69343,-0.16428 24.41534,-0.77272 36.42489,-1.99827 z m 129.35853,11.673845 c -4.12416,3.30414 -11.80709,17.36854 -4.94297,14.6187 -1.41767,-3.80823 4.63662,-28.060675 4.94297,-14.6187 z m 14.09269,-1.577535 c -1.48307,20.103335 -7.84584,43.098575 -21.44083,56.818155 -14.77445,13.98971 -32.18649,-10.55447 -34.73936,-17.22009 7.87216,6.38848 10.11259,13.65158 20.63298,11.19896 -6.08684,15.72195 23.1081,-13.59454 7.04634,-6.83613 -12.40199,20.44192 5.85457,-19.04358 7.25672,-6.09977 -4.80637,0.32399 -3.16495,6.73665 4.31186,-0.84117 9.9731,4.47417 -6.74425,-10.20294 2.65554,-17.47137 3.77385,-6.30953 -3.72685,-23.719145 6.33417,-22.913865 3.14107,0.85029 10.54047,-2.48609 7.94258,3.36543 z m -177.3158,3.786175 c 5.2154,3.471 23.46648,7.56565 11.67385,14.51344 -10.34471,7.33155 -27.34757,-21.691215 -11.67385,-14.51344 z m -9.04461,5.25845 c 15.17343,14.13042 -30.80032,15.33194 -7.72507,1.76326 4.65183,-3.62935 0.15211,-13.739655 7.72507,-1.76326 z m 265.65829,-5.46882 c 6.17415,9.18107 -0.3392,24.44014 -2.41885,22.296 -3.54143,10.9539 -8.6105,21.08459 -14.61854,29.65782 -2.42327,-3.03475 13.30628,-27.81333 11.56052,-40.66618 1.13322,-3.35966 -1.50894,-14.250285 5.47687,-11.28764 z m -95.91469,16.30134 c 0.55977,5.76513 -6.65588,18.60854 -5.04808,4.31187 -0.19774,-1.54803 3.2728,-10.73898 5.04808,-4.31187 z m -163.8542,5.8894 c 4.3794,12.45143 9.2632,33.00439 5.04822,41.8969 -2.42174,3.65232 -2.7074,-8.92156 -8.41351,-2.66862 -5.52038,-1.89057 -16.23805,-18.10156 -11.04289,-17.35302 4.22501,-7.17975 -12.81938,1.23361 -4.35141,-7.72993 -23.87414,-7.90851 2.5702,-20.4363 15.70978,-17.93135 l 1.44656,1.06477 z m 20.0875,-0.94613 c 8.67727,10.66079 -1.82517,13.69904 -4.83786,21.30987 -6.77635,25.93614 -8.7515,-28.81102 -9.3896,-24.09029 4.80424,0.25251 9.85582,0.57194 14.22746,2.78042 z m 48.58838,3.47055 c 15.56664,3.26641 31.02148,14.79636 44.90731,20.82357 6.91294,3.79317 31.18545,17.64006 8.081,17.27819 -16.63857,1.51501 -32.66017,-4.81535 -46.57307,-11.91448 -11.31699,-3.01985 -20.78554,-15.1885 -13.77722,-24.60975 0.47154,-2.05211 6.50134,-3.98787 7.36198,-1.57753 z m -101.38351,1.57753 c -11.42073,5.05888 14.98361,7.01639 9.33378,15.97263 9.93203,-0.77576 4.28038,7.7567 13.17243,6.75658 -5.80102,12.79352 15.84318,15.54732 10.62215,24.59712 -13.61233,6.57039 -24.22688,-6.20762 -32.30012,-13.08041 -9.40816,-7.36715 -18.59759,-18.56975 -27.18679,-28.18874 -1.0024,-7.80614 24.30628,-5.86567 24.25517,-7.24029 z m 182.04855,42.48846 c -2.70969,10.27854 3.74404,25.6164099 -15.57044,28.15116988 C 369.16917,6.7521249 359.11439,-15.241325 353.26956,-24.576325 c -7.83185,-6.4154 23.99597,-3.51937 3.92991,-0.28293 11.72693,3.37213 43.14953,-2.05044 38.88634,-3.57565 -4.31217,10.35627 14.44164,-10.33771 10.72741,-0.31639 z M 363.37818,8.4794849 c 2.91854,11.2255701 20.95013,36.8611401 21.03303,28.1262201 -8.12496,6.47411 -30.19538,21.65196 -21.09569,0.71188 1.87049,-7.52748 -11.91251,-40.7151601 0.0608,-28.8387101 z m 39.4385,3.5758001 c -4.11138,17.45449 -17.88632,26.07289 -26.62413,6.76556 -20.79878,-12.8548301 12.72766,-16.5244901 14.52971,-1.2975 3.57367,-0.73622 16.32734,-19.4883501 12.09442,-5.46882 z m 3.99654,14.7238 c 1.74957,11.57756 5.37633,23.66195 -8.6289,11.80694 -13.86149,-0.6997 4.59205,-14.81826 8.37579,-16.86825 l 0.15211,2.20286 z m -10.62215,15.98571 c 15.52314,5.99557 15.48268,20.21376 -1.05108,13.14627 -8.95792,4.67161 -5.68207,-12.78151 -15.56512,-1.15756 -5.22864,-0.0761 -7.5979,-4.4912 -3.93068,2.99733 8.48105,-3.50355 15.41362,8.97648 12.86517,1.89469 5.6734,-2.26127 27.97076,-2.5302 27.87478,11.30421 0.55672,3.52226 -15.07563,-12.24562 -4.42184,1.88662 10.09114,11.84406 -22.11361,14.62432 -2.24651,13.1049 6.80631,-5.39854 5.3926,-16.03241 10.79631,-5.30287 2.79929,8.60822 -16.74108,14.3087 -0.1369,8.40044 7.85375,-5.06451 -10.6442,15.914965 -17.24776,4.62749 -10.20856,-4.56832 -33.87492,-23.96084 -28.18554,-18.08924 -10.56116,-6.64523 -12.67458,-4.86433 -15.24965,-17.87872 12.73086,-0.62669 23.97103,-26.11639 36.49395,-14.93417 z m 29.23708,-306.674365 c -10.76316,11.32262 -5.34986,-4.07518 2.85435,-2.28257 z m 37.1249,6.62561 c -10.71768,13.47604 0.82596,8.06868 0.95982,-2.74757 z m -23.34768,1.36747 c -8.11249,6.91888 -4.04096,19.73918 0.5263,5.04823 0.64038,0.12169 1.62803,-11.16017 -0.5263,-5.04823 z m -28.92161,0 c 7.55851,4.15306 15.20067,-3.97038 0,0 z m -15.24964,3.4707 c -8.41488,2.73707 -18.48518,14.75681 -3.68137,4.12401 9.71847,-4.47037 23.88965,-11.63415 3.68137,-4.12401 z m 70.77911,3.89128 c -21.54183,12.41203 19.03794,-5.84255 3.74343,-1.77148 z m 34.91641,3.68091 c 1.34313,1.88647 1.34313,-1.88647 0,0 z m -43.75066,3.47054 c 1.77467,6.91934 32.24323,15.48983 12.92692,1.92906 -3.55086,-0.83964 -10.08003,-3.80594 -12.92692,-1.92906 z m 9.36009,3.57581 c 16.4752,7.09168 0.0151,-2.86058 -4.4515,-1.75992 l 1.87886,0.70884 z m -11.88406,1.7879 c 3.82679,7.5363 21.65257,9.27278 5.10071,2.9053 -1.66773,-0.37267 -3.33303,-4.89201 -5.10071,-2.9053 z m -15.98585,83.92523 c 10.68923,-0.34529 -1.7838,-0.1369 -0.48676,-0.28901 z m 8.41366,2.10338 c 15.40145,0.41374 2.73525,-1.1317 0,0 z m 44.38147,13.46175 c 1.34313,1.88647 1.34313,-1.88647 0,0 z m 7.36197,7.88767 c 4.13116,8.63605 7.68308,44.576175 5.85,17.25278 1.38421,-2.69524 -9.7463,-33.41281 -5.85,-17.25278 z m -30.39403,-1.68265 c 9.36922,2.66649 18.07874,-1.99994 0,0 z m 24.08375,3.78602 c 19.7556,3.42157 -9.12661,-3.3668 0,0 z m -40.17486,22.82184 c 10.83084,0.85943 4.69274,-1.40854 0,0 z m 18.93055,1.05109 c 7.80553,0.84421 4.10789,-1.40398 0,0 z m 11.56858,1.05108 c 15.40145,0.41374 2.73525,-1.1317 0,0 z m 22.50636,8.203295 c 0.66168,5.90583 0.57194,-6.54651 0,0 z m -55.95019,3.68092 c 0.89897,2.85206 0.89897,-2.85207 0,0 z m 6.09976,0.73621 c 15.40145,0.41374 2.73525,-1.1317 0,0 z m 48.2729,6.41524 c -2.04618,10.16431 -5.18163,25.97144 0.35442,6.99387 1.56567,-4.47781 0.31791,-19.55405 -0.35442,-6.99387 z m -46.16952,0.94613 c 10.83085,0.85942 4.69275,-1.40854 0,0 z m 41.22655,19.24603 c 0.89897,2.85207 0.89897,-2.85206 0,0 z m -54.16245,3.26033 c 12.35499,1.44201 46.47192,1.18798 40.72702,1.4268 -12.25277,-0.4031 -33.99326,-2.58253 -40.72702,-1.4268 z m 52.05892,1.36747 c -7.7278,17.14479 5.72786,-7.21504 0,0 z m -63.6275,14.30307 c 14.25272,3.44879 10.78735,-2.81054 0,0 z m 22.61147,1.05108 c 11.64874,4.18561 21.0747,-3.51025 0,0 z m 24.189,0.5263 c 1.34314,1.88647 1.34314,-1.88647 0,0 z m 2.10338,0 c 1.34313,1.88647 1.34313,-1.88647 0,0 z M 388.9342,-123.50951 c 5.80863,8.16162 40.38417,25.563025 18.61493,11.88421 -3.77476,-1.0602 -19.97692,-16.79782 -18.61493,-11.88421 z m 13.98759,6.20503 c 24.71454,21.463355 -0.84573,-5.3053 0,0 z m -1.7879,23.347695 c -656.55879,-254.196235 -656.55879,-254.196235 0,0 z m 7.04634,38.38681 c 1.34314,1.88647 1.34314,-1.88647 0,0 z m -12.62042,43.64541 c 3.60501,11.31455988 1.21993,-4.48041 0.20991,-1.7879 z m -1.05108,73.5136 c 18.14461,13.67074 -6.83932,21.93108 -11.91919,13.1525 11.23972,19.46568 32.17524,-6.52248 11.91919,-13.1525 z"
         id="path1-7"
         style="display:inline;fill:#1e1e1c;stroke-width:0px"
         inkscape:label="path1-7"
         sodipodi:nodetypes="ccccccccccccccccccccccccccccccccccccsccccccccccccccccccccccccccccccccccccccccccccccccccccccccscccssccccccccccccccccccccccccccccccccccscccccccccccccccssccccccccccccccccccccccccccccccccccsccccccccssccccccccccccccccccccccccccccccccccccccccsccccsscccccsccsscccccccccccccccccccccccccccccccccccccccccccccccccccccccccccccccccccccccccccccccccccccccccccccccccccccccccccccc" />
    </g>
    <path
       d="M 67.743353,43.288395 H 67.16785 l -1.115177,-1.325673 h -0.624768 v 1.325673 H 64.984522 V 39.95406 h 0.933792 q 0.302308,0 0.503846,0.04031 0.201538,0.03807 0.362768,0.138837 0.181384,0.114205 0.282153,0.288871 0.103009,0.172427 0.103009,0.438905 0,0.360529 -0.181385,0.604614 -0.181384,0.241846 -0.499366,0.365008 z m -1.036801,-2.396063 q 0,-0.143316 -0.0515,-0.253043 -0.04926,-0.111965 -0.165709,-0.188102 -0.09629,-0.06494 -0.22841,-0.08957 -0.132119,-0.02687 -0.311264,-0.02687 h -0.52176 v 1.258493 h 0.447863 q 0.210495,0 0.367247,-0.03583 0.156751,-0.03807 0.266478,-0.138837 0.100769,-0.09405 0.147794,-0.214974 0.04927,-0.123162 0.04927,-0.311264 z m 3.855806,2.396063 H 68.365593 V 39.95406 h 2.196765 v 0.394119 h -1.753381 v 0.913639 h 1.753381 v 0.394119 h -1.753381 v 1.238339 h 1.753381 z m 2.0581,-0.866614 q 0,0.438905 -0.268718,0.676272 -0.266478,0.237367 -0.71658,0.237367 -0.107486,0 -0.286631,-0.02015 -0.179145,-0.01792 -0.300068,-0.04479 v -0.414272 h 0.02463 q 0.09181,0.03135 0.226171,0.06494 0.134358,0.03359 0.275435,0.03359 0.206017,0 0.32694,-0.04703 0.123162,-0.04703 0.181384,-0.134359 0.06046,-0.08957 0.07614,-0.219452 0.01792,-0.12988 0.01792,-0.300068 v -1.945958 h -0.70539 V 39.95406 h 1.148767 z m 3.417362,-0.08509 q 0,0.19482 -0.09181,0.385161 -0.08957,0.190342 -0.253042,0.322461 -0.179145,0.143316 -0.418751,0.223931 -0.237367,0.08061 -0.573264,0.08061 -0.360529,0 -0.6494,-0.06718 -0.286632,-0.06718 -0.584461,-0.199299 v -0.555349 h 0.03135 q 0.253042,0.210495 0.58446,0.3247 0.331418,0.114205 0.622529,0.114205 0.412033,0 0.640443,-0.154512 0.230649,-0.154513 0.230649,-0.412034 0,-0.221692 -0.109726,-0.326939 -0.107487,-0.105248 -0.329179,-0.16347 -0.167948,-0.04479 -0.365008,-0.0739 -0.19482,-0.02911 -0.414273,-0.0739 -0.443383,-0.09405 -0.658357,-0.320221 -0.212735,-0.22841 -0.212735,-0.593418 0,-0.418751 0.353811,-0.685229 0.353812,-0.268717 0.897964,-0.268717 0.351572,0 0.644922,0.06718 0.29335,0.06718 0.51952,0.165709 v 0.523999 h -0.03135 Q 75.68177,40.489255 75.370505,40.384008 75.06148,40.276521 74.73678,40.276521 q -0.35605,0 -0.573264,0.147794 -0.214974,0.147795 -0.214974,0.380683 0,0.208256 0.107487,0.32694 0.107487,0.118683 0.378444,0.181384 0.143316,0.03135 0.407555,0.07614 0.264239,0.04479 0.447862,0.09181 0.371726,0.09853 0.559828,0.297829 0.188102,0.199299 0.188102,0.55759 z m 5.293258,0.951707 h -0.575503 l -1.318955,-1.484664 -0.331418,0.353812 v 1.130852 H 78.661819 V 39.95406 h 0.443383 v 1.739945 l 1.619023,-1.739945 h 0.537434 l -1.489142,1.567518 z m 3.25837,0 h -0.472494 l -0.32694,-0.929314 h -1.442117 l -0.326939,0.929314 h -0.450102 l 1.213707,-3.334335 h 0.591179 z m -0.936032,-1.309997 -0.58446,-1.636937 -0.5867,1.636937 z m 3.755498,-1.016648 q 0,0.221692 -0.07838,0.412034 -0.07614,0.188102 -0.214973,0.326939 -0.172427,0.172427 -0.407555,0.25976 -0.235128,0.08509 -0.593418,0.08509 h -0.443383 v 1.242818 h -0.44338 V 39.95406 h 0.904682 q 0.300067,0 0.508323,0.0515 0.208256,0.04926 0.369487,0.156752 0.190341,0.127641 0.29335,0.317982 0.105247,0.190342 0.105247,0.481452 z m -0.461298,0.0112 q 0,-0.172427 -0.06046,-0.300068 -0.06046,-0.127641 -0.183624,-0.208256 -0.107487,-0.06942 -0.246324,-0.09853 -0.136598,-0.03135 -0.347093,-0.03135 H 85.67121 v 1.33239 h 0.373965 q 0.268717,0 0.436665,-0.04702 0.167949,-0.04926 0.273196,-0.154513 0.105248,-0.107487 0.147795,-0.22617 0.04479,-0.118684 0.04479,-0.266478 z m 2.35369,2.315448 H 87.984591 V 42.94802 h 0.436665 V 40.294435 H 87.984591 V 39.95406 h 1.316715 v 0.340375 H 88.86464 v 2.653585 h 0.436666 z m 3.265088,-2.940216 h -1.191313 v 2.940216 H 90.931697 V 40.348179 H 89.740383 V 39.95406 h 2.826011 z m 2.940388,2.940216 h -0.472495 l -0.326939,-0.929314 h -1.442117 l -0.326939,0.929314 H 92.48819 l 1.213707,-3.334335 h 0.591178 z M 94.57075,41.978398 93.986289,40.341461 93.39959,41.978398 Z m 4.118268,1.309997 h -0.548631 l -1.580954,-2.982763 v 2.982763 H 96.14516 V 39.95406 h 0.687469 l 1.442117,2.723003 V 39.95406 h 0.414272 z m -0.566546,-4.588349 -0.611332,0.837502 h -0.333657 l 0.400837,-0.837502 z m 4.008538,3.636642 q 0,0.19482 -0.0918,0.385161 -0.0896,0.190342 -0.25304,0.322461 -0.17915,0.143316 -0.41875,0.223931 -0.23737,0.08061 -0.57327,0.08061 -0.36052,0 -0.6494,-0.06718 -0.286628,-0.06718 -0.584456,-0.199299 v -0.555349 h 0.03135 q 0.253042,0.210495 0.584456,0.3247 0.33142,0.114205 0.62253,0.114205 0.41204,0 0.64045,-0.154512 0.23065,-0.154513 0.23065,-0.412034 0,-0.221692 -0.10973,-0.326939 -0.10749,-0.105248 -0.32918,-0.16347 -0.16795,-0.04479 -0.36501,-0.0739 -0.19482,-0.02911 -0.41427,-0.0739 -0.44338,-0.09405 -0.658358,-0.320221 -0.212735,-0.22841 -0.212735,-0.593418 0,-0.418751 0.353812,-0.685229 0.353811,-0.268717 0.897961,-0.268717 0.35157,0 0.64492,0.06718 0.29335,0.06718 0.51952,0.165709 v 0.523999 h -0.0314 q -0.19034,-0.161231 -0.5016,-0.266478 -0.30903,-0.107487 -0.63373,-0.107487 -0.35605,0 -0.57326,0.147794 -0.21497,0.147795 -0.21497,0.380683 0,0.208256 0.10748,0.32694 0.10749,0.118683 0.37845,0.181384 0.14331,0.03135 0.40755,0.07614 0.26424,0.04479 0.44786,0.09181 0.37173,0.09853 0.55983,0.297829 0.1881,0.199299 0.1881,0.557589 z m 3.52485,0.951707 h -0.5755 l -1.31896,-1.484664 -0.33142,0.353812 v 1.130852 H 102.9866 V 39.95406 h 0.44338 v 1.739945 l 1.61903,-1.739945 h 0.53743 l -1.48914,1.567518 z m 1.80506,0 H 106.1442 V 42.94802 h 0.43667 V 40.294435 H 106.1442 V 39.95406 h 1.31672 v 0.340375 h -0.43667 v 2.653585 h 0.43667 z m 3.87801,-0.866614 q 0,0.438905 -0.26871,0.676272 -0.26648,0.237367 -0.71658,0.237367 -0.10749,0 -0.28664,-0.02015 -0.17914,-0.01792 -0.30006,-0.04479 v -0.414272 h 0.0246 q 0.0918,0.03135 0.22617,0.06494 0.13436,0.03359 0.27544,0.03359 0.20601,0 0.32693,-0.04703 0.12317,-0.04703 0.18139,-0.134359 0.0605,-0.08957 0.0761,-0.219452 0.0179,-0.12988 0.0179,-0.300068 v -1.945962 h -0.70538 V 39.95406 h 1.14876 z m 3.41737,-0.08509 q 0,0.19482 -0.0918,0.385161 -0.0896,0.190342 -0.25304,0.322461 -0.17914,0.143316 -0.41875,0.223931 -0.23737,0.08061 -0.57326,0.08061 -0.36053,0 -0.6494,-0.06718 -0.28664,-0.06718 -0.58446,-0.199299 v -0.555349 h 0.0314 q 0.25304,0.210495 0.58446,0.3247 0.33141,0.114205 0.62253,0.114205 0.41203,0 0.64044,-0.154512 0.23065,-0.154513 0.23065,-0.412034 0,-0.221692 -0.10973,-0.326939 -0.10749,-0.105248 -0.32918,-0.16347 -0.16795,-0.04479 -0.36501,-0.0739 -0.19482,-0.02911 -0.41427,-0.0739 -0.44338,-0.09405 -0.65836,-0.320221 -0.21273,-0.22841 -0.21273,-0.593418 0,-0.418751 0.35381,-0.685229 0.35381,-0.268717 0.89796,-0.268717 0.35158,0 0.64493,0.06718 0.29335,0.06718 0.51952,0.165709 v 0.523999 h -0.0313 q -0.19035,-0.161231 -0.50161,-0.266478 -0.30902,-0.107487 -0.63372,-0.107487 -0.35606,0 -0.57327,0.147794 -0.21497,0.147795 -0.21497,0.380683 0,0.208256 0.10748,0.32694 0.10749,0.118683 0.37845,0.181384 0.14331,0.03135 0.40755,0.07614 0.26424,0.04479 0.44787,0.09181 0.37172,0.09853 0.55982,0.297829 0.18811,0.199299 0.18811,0.557589 z m 3.81371,0.951707 h -0.44338 v -2.873037 l -0.92707,1.954919 h -0.26424 l -0.92036,-1.954919 v 2.873037 h -0.41427 V 39.95406 h 0.60461 l 0.88901,1.856389 0.85989,-1.856389 h 0.61581 z m 5.47689,0 h -0.57551 l -1.31895,-1.484664 -0.33142,0.353812 v 1.130852 h -0.44338 V 39.95406 h 0.44338 v 1.739945 l 1.61902,-1.739945 h 0.53744 l -1.48914,1.567518 z m 3.38825,0 h -0.5755 l -1.11518,-1.325673 h -0.62477 v 1.325673 h -0.44338 V 39.95406 h 0.93379 q 0.30231,0 0.50384,0.04031 0.20154,0.03807 0.36277,0.138837 0.18139,0.114205 0.28216,0.288871 0.10301,0.172427 0.10301,0.438905 0,0.360529 -0.18139,0.604614 -0.18138,0.241846 -0.49937,0.365008 z m -1.0368,-2.396063 q 0,-0.143316 -0.0515,-0.253043 -0.0493,-0.111965 -0.16571,-0.188102 -0.0963,-0.06494 -0.22841,-0.08957 -0.13211,-0.02687 -0.31126,-0.02687 h -0.52176 v 1.258493 h 0.44786 q 0.2105,0 0.36725,-0.03583 0.15675,-0.03807 0.26648,-0.138837 0.10077,-0.09405 0.14779,-0.214974 0.0493,-0.123162 0.0493,-0.311264 z m 3.91448,-0.938272 -1.17339,1.872064 v 1.462271 h -0.44339 V 41.87315 l -1.17788,-1.91909 h 0.49041 l 0.9114,1.491381 0.92036,-1.491381 z m 3.01653,2.382628 q 0,0.19482 -0.0918,0.385161 -0.0896,0.190342 -0.25304,0.322461 -0.17915,0.143316 -0.41875,0.223931 -0.23737,0.08061 -0.57327,0.08061 -0.36053,0 -0.6494,-0.06718 -0.28663,-0.06718 -0.58446,-0.199299 v -0.555349 h 0.0314 q 0.25305,0.210495 0.58446,0.3247 0.33142,0.114205 0.62253,0.114205 0.41204,0 0.64044,-0.154512 0.23065,-0.154513 0.23065,-0.412034 0,-0.221692 -0.10972,-0.326939 -0.10749,-0.105248 -0.32918,-0.16347 -0.16795,-0.04479 -0.36501,-0.0739 -0.19482,-0.02911 -0.41427,-0.0739 -0.44339,-0.09405 -0.65836,-0.320221 -0.21273,-0.22841 -0.21273,-0.593418 0,-0.418751 0.35381,-0.685229 0.35381,-0.268717 0.89796,-0.268717 0.35157,0 0.64492,0.06718 0.29335,0.06718 0.51952,0.165709 v 0.523999 h -0.0314 q -0.19034,-0.161231 -0.5016,-0.266478 -0.30903,-0.107487 -0.63373,-0.107487 -0.35605,0 -0.57326,0.147794 -0.21498,0.147795 -0.21498,0.380683 0,0.208256 0.10749,0.32694 0.10749,0.118683 0.37845,0.181384 0.14331,0.03135 0.40755,0.07614 0.26424,0.04479 0.44786,0.09181 0.37173,0.09853 0.55983,0.297829 0.1881,0.199299 0.1881,0.557589 z m 3.22254,-1.988509 h -1.19131 v 2.940216 h -0.44339 v -2.940216 h -1.19131 V 39.95406 h 2.82601 z m 1.7558,2.940216 h -1.31672 V 42.94802 h 0.43667 v -2.653585 h -0.43667 V 39.95406 h 1.31672 v 0.340375 h -0.43667 v 2.653585 h 0.43667 z m 3.51589,0 h -0.4725 l -0.32694,-0.929314 h -1.44211 l -0.32694,0.929314 h -0.45011 l 1.21371,-3.334335 h 0.59118 z m -0.93604,-1.309997 -0.58446,-1.636937 -0.5867,1.636937 z m 4.11827,1.309997 h -0.54863 l -1.58096,-2.982763 v 2.982763 h -0.41427 V 39.95406 h 0.68747 l 1.44212,2.723003 V 39.95406 h 0.41427 z m 3.64801,0 h -0.47249 l -0.32694,-0.929314 h -1.44212 l -0.32694,0.929314 h -0.4501 l 1.21371,-3.334335 h 0.59118 z m -0.93603,-1.309997 -0.58446,-1.636937 -0.5867,1.636937 z"
       id="text2"
       style="font-size:4.58611px;letter-spacing:0.132292px;word-spacing:0.0238125px;stroke-width:0.264583"
       aria-label="REJS KAPITASKI JSM KRYSTIANA" />
  </g>
</svg>
