<?xml version="1.0" encoding="UTF-8" standalone="no"?>
<!-- Created with Inkscape (http://www.inkscape.org/) -->

<svg
   width="210mm"
   height="297mm"
   viewBox="0 0 210 297"
   version="1.1"
   id="svg1"
   inkscape:version="1.3.2 (091e20e, 2023-11-25)"
   sodipodi:docname="toadi.svg"
   xmlns:inkscape="http://www.inkscape.org/namespaces/inkscape"
   xmlns:sodipodi="http://sodipodi.sourceforge.net/DTD/sodipodi-0.dtd"
   xmlns="http://www.w3.org/2000/svg"
   xmlns:svg="http://www.w3.org/2000/svg">
  <sodipodi:namedview
     id="namedview1"
     pagecolor="#cccccc"
     bordercolor="#dddddd"
     borderopacity="0.25"
     inkscape:showpageshadow="2"
     inkscape:pageopacity="0.0"
     inkscape:pagecheckerboard="0"
     inkscape:deskcolor="#d1d1d1"
     inkscape:document-units="mm"
     inkscape:zoom="11.35305"
     inkscape:cx="453.88684"
     inkscape:cy="497.04705"
     inkscape:window-width="1728"
     inkscape:window-height="1051"
     inkscape:window-x="0"
     inkscape:window-y="38"
     inkscape:window-maximized="0"
     inkscape:current-layer="layer1" />
  <defs
     id="defs1" />
  <g
     inkscape:label="Layer 1"
     inkscape:groupmode="layer"
     id="layer1">
    <path
       d="m 135.28815,113.82877 c -0.33964,1.32563 -0.95178,2.56951 -1.8884,3.57673 -0.43207,0.9684 -0.69329,1.76303 -1.77258,2.19218 -1.02456,0.82838 -0.77864,1.92131 0.56781,1.95062 0.12838,1.27223 -0.78576,2.68766 -1.992,2.74012 -1.24196,-0.13928 -1.68571,0.91937 -2.52719,1.5293 0.48598,0.44131 0.21022,0.43226 0.58822,0.94702 -0.25109,0.78018 -1.90716,2.10531 -1.36259,1.73563 -0.25879,1.13706 -2.20025,-0.0617 -2.85479,1.14919 -0.70476,0.92628 -1.38861,2.33077 -2.84468,1.77391 -1.97852,-0.0396 0.0256,1.87778 0.67467,2.42608 0.71059,0.58086 2.13929,2.27196 2.93676,1.40584 0.12333,-0.75758 0.76427,-0.13443 0.67066,-1.13131 0.66754,-0.48485 0.53002,-1.89059 1.17884,-1.71987 0.68327,-0.77948 1.49045,0.93673 2.06384,1.42689 0.3555,0.4146 1.63407,0.0665 1.02069,0.67412 0.58125,0.13427 1.25217,-0.0862 1.35647,0.69501 0.47757,0.38563 0.2951,3.93796 0.0832,3.52374 0.57185,1.00439 -0.74605,2.30605 0.75817,2.80937 1.08038,0.62147 2.36342,2.13265 3.67568,1.45368 0.892,-1.07844 -0.65522,-2.1587 -0.55745,-3.3222 0.28284,-1.0958 -0.84414,-2.56049 -0.0605,-3.2738 0.64178,-0.42079 -0.78904,-1.14507 -0.27657,-1.99753 0.38195,-0.69792 1.78604,0.12267 2.53356,-0.0344 1.10739,-0.0523 2.29875,0.31858 3.23449,-0.42427 1.19814,-0.60082 1.59606,-2.14263 1.80197,-3.35968 0.0583,-1.17674 -0.2939,-2.34586 -0.9926,-3.25933 -0.76765,-0.74393 -1.94078,-0.95017 -2.37749,-1.65972 -0.64882,0.2021 -1.26099,-0.27887 -0.48736,-0.44801 1.06639,0.25494 2.31335,0.60176 3.22958,-0.22652 1.36056,-0.73561 1.92022,-2.15213 1.96419,-3.62858 -10e-4,-1.42657 1.24717,-2.63657 1.14841,-3.97729 -1.05228,0.27478 -1.78978,1.51998 -2.92213,1.88787 -0.64921,0.1485 -1.22027,1.53832 -1.45565,0.33834 -0.58893,-0.3949 -1.34762,0.0959 -1.53805,-0.7613 -1.52528,0.59965 -1.81907,-0.89628 -2.16906,-2.06676 -0.55847,-0.66408 -0.61757,-2.97604 -1.40809,-2.94506 z m 0.2973,1.02328 c 0.0847,1.19596 1.05513,2.73643 0.41485,3.75433 -0.85016,0.49984 -1.52805,0.13795 -2.47583,0.10961 -0.95611,0.19324 -0.0173,-1.16133 -0.11694,-0.96695 0.26986,-0.55541 0.83903,-0.79132 1.05871,-1.43294 0.44531,-0.36572 1.13426,-2.31137 0.82882,-1.82358 0.26511,-0.5061 0.16241,0.0429 0.29039,0.35953 z m 9.02283,3.15281 c -0.0771,0.26726 -0.69675,1.38362 -0.84805,2.02624 -0.41163,0.64946 -0.37568,1.68296 -0.47253,2.32269 0.34001,0.46271 -1.69687,2.5979 -0.62918,1.41046 -0.45701,0.73629 -1.53078,1.28638 -1.39664,1.2307 -0.56119,0.2615 -0.9148,0.48901 -1.65937,0.29731 -1.30322,0.17964 -1.17614,-0.72117 -0.28506,-1.29065 1.17969,-0.71876 1.82575,-1.86464 2.46653,-3.03445 1.00957,-0.87783 1.82076,-2.32176 2.8243,-2.9623 z m -7.47408,0.77437 c 0.30848,0.65381 0.41656,1.83745 -0.18668,2.18484 1.30209,-0.34504 -0.20979,-1.81261 1.25196,-1.57681 0.80008,0.18521 2.43312,0.64924 1.11351,1.55693 0.39537,0.14044 0.81804,-1.57251 1.18144,-0.58856 -0.35946,0.64991 -0.39722,1.12394 0.0864,0.18322 0.45733,-0.2838 0.87606,-0.32741 1.40701,-0.77783 1.13665,-0.53739 -0.97742,1.57816 -0.64992,1.26787 -0.0637,0.61418 -0.14336,0.044 -0.45633,0.9066 -0.47586,0.76896 -0.0987,0.57338 -0.35261,0.79857 0.36115,-0.96485 -1.52989,-1.3989 -1.80371,-1.09674 1.10539,-0.25716 2.37374,0.91087 1.08292,1.64209 -0.39725,0.066 0.56317,-0.97329 -0.3961,-0.91118 -0.6973,-0.0445 0.58834,0.099 -0.0101,0.10223 -1.11609,0.55586 -2.33229,1.34876 -3.65307,0.96628 -1.34954,-0.20552 -2.22169,-1.34049 -3.33012,-2.01548 -0.44552,-0.51674 -1.33901,-0.94993 -0.32921,-1.59031 0.73022,-0.8667 2.07259,-0.85424 2.85111,-0.72503 0.40147,0.30653 0.62741,-0.57897 0.99994,-0.23076 0.24341,-0.18501 1.07447,-0.70504 1.19354,-0.0959 z m -4.61858,3.02144 c 0.7272,0.24771 -0.26223,2.3555 -0.98616,2.86572 -0.4017,0.33899 -0.87674,-0.37832 -0.34833,0.41029 0.4787,0.54081 0.87766,1.08232 1.55401,1.11786 0.55926,0.29568 0.68199,-0.1558 1.22551,0.16248 -0.94763,0.39865 -1.97507,1.4696 -2.68381,0.08 -0.69601,-0.96057 0.88845,0.18224 0.052,-0.53079 -0.66542,-0.32711 -1.57656,-1.85834 -0.22541,-1.51889 1.02662,-0.58031 1.2973,-2.17178 1.26699,-2.10273 0.32952,0.002 0.33753,-0.34585 0.089,-0.52028 z m 7.30123,0.87808 c -0.28925,0.48148 -1.2723,1.21835 -0.85648,1.21082 -0.17921,0.52356 -0.34709,0.59156 -0.87462,1.17625 -0.5538,0.71105 0.53506,-0.55769 -0.14952,0.42694 -0.18038,0.6231 -0.87405,0.29503 -1.35338,0.36141 -1.16119,0.0239 1.18202,-1.9829 1.02669,-1.46387 0.61662,-0.56417 1.24676,-1.98541 2.20731,-1.71155 z m -6.2019,0.26273 c 0.6249,0.6394 3.06993,1.04598 2.40166,0.92195 -0.90924,0.22714 -1.58061,0.89162 -2.22535,0.0132 -0.8304,-0.13771 -1.09034,-0.0497 -0.71647,-0.95414 0.18953,0.06 0.35294,-0.23467 0.54016,0.019 z m 3.49159,0.9334 c 0.92399,0.89257 -1.13787,-0.2799 0,0 z m -3.18737,0.71906 c 1.03615,0.27575 -1.336,0.83573 -0.35953,0.67757 0.69967,-0.44509 2.63981,-0.90107 2.55463,0.32659 -1.08255,0.36376 -2.26164,0.72874 -3.43043,0.38645 -2.22197,-0.29537 0.41847,-2.21159 1.23533,-1.39061 z m -4.07929,0.62918 c 1.1016,0.38214 0.71825,2.14932 -0.63701,1.35485 -0.80571,-0.2683 -0.19132,-1.34083 0.51991,-1.42875 z m 8.64256,0.96796 c 0.71567,-0.0213 3.35464,1.95241 1.97741,1.3275 -0.93475,-1.19826 1.21063,0.35069 0.49177,0.17976 0.72575,1.98787 0.67262,4.55527 -0.89969,6.12585 -0.11843,-0.12234 0.4564,-1.01262 -0.16335,-0.17718 -0.67187,0.82558 -2.10689,0.23598 -3.13342,0.34754 -0.64601,-0.0636 -1.64688,0.20028 -0.74859,-0.5927 1.32089,-1.75228 1.71656,-4.30373 0.7197,-6.2912 0.76749,-0.14792 3.12307,0.48401 2.95987,0.26175 -1.41148,-0.42715 -3.08291,0.0413 -4.07497,-1.27876 0.70614,-0.26268 2.028,-0.0721 2.87127,0.0974 z m -3.12515,-0.0553 c 1.84826,0.71181 2.02986,3.0358 1.67058,4.71204 -0.25868,1.29637 -0.92762,2.9558 -2.38359,3.2175 0.93286,-0.50205 1.7358,-1.91182 1.92159,-3.15816 0.33199,-1.4771 0.28714,-3.35249 -0.952,-4.38419 -0.47451,0.0806 0.61331,0.67312 0.46494,0.72547 0.32431,0.4646 -0.14331,2.4076 0.39164,2.19917 -1.16277,0.17589 -0.5389,-1.22904 -1.0964,-1.80311 -0.42589,-0.51559 -1.0877,-1.04928 -1.64278,-1.11463 0.53199,-0.22812 2.14887,-0.3727 1.73297,-0.13416 -0.73092,-0.1827 -1.31692,-0.50515 -0.10695,-0.25993 z m -3.27034,1.1339 c 0.6882,0.31425 -2.39577,1.35497 -1.3759,1.16848 -0.76887,0.14934 -0.24928,-1.84013 -0.50041,-0.42678 0.10566,0.5518 -1.66702,0.29095 -0.38458,0.4406 0.71781,-0.11725 1.16976,0.0831 0.69832,0.71906 0.5044,-0.97263 1.90249,-2.01226 2.88315,-1.70085 0.178,1.05381 -2.82923,0.83496 -0.84751,0.96 1.18687,-0.27845 1.96482,1.80523 0.3408,1.21848 -0.82098,-0.31797 -1.45009,0.42198 -0.31141,0.56942 0.90044,-0.14021 1.9806,0.85775 0.61502,1.17409 -0.54874,0.0948 -1.78095,-0.16103 -0.56717,0.13839 1.19303,-0.38239 1.17393,1.04144 -0.0468,0.75307 -1.04035,0.14719 -2.02999,-0.81888 -2.15164,-1.0211 -1.21359,0.009 -2.68286,-0.71314 -2.73882,-2.04828 -0.91246,0.67327 1.16355,-3.13842 0.56673,-1.63593 -0.19788,-1.33267 1.6989,0.36574 2.42359,-0.44001 0.73809,-0.65372 0.61099,-0.32599 1.39664,0.13136 z m 1.46578,-0.47707 c 0.26703,-0.27854 1.68397,0.67052 0.61535,0.27743 -0.16397,-0.11525 -1.20943,-0.29368 -0.61535,-0.27743 z m 0.77437,0.51164 c 1.15444,0.83718 1.14815,2.53961 0.80203,3.79581 0.22378,1.01719 -1.279,2.71087 -1.85297,1.25144 0.79743,-0.29442 -0.03,-1.53282 0.99898,-0.74153 1.40921,0.89301 -0.96351,-0.79115 -0.33263,-0.34656 0.80375,-1.10066 -2.16356,-1.16587 -0.74931,-1.44245 0.59548,-0.29044 1.86734,0.89595 0.75363,-0.0691 0.49219,-0.90733 -0.59838,-1.04792 -0.82364,-1.57899 0.58706,-0.1984 0.28201,-1.64487 1.20391,-0.86858 z m 0.57386,0.0415 c 0.50377,0.65431 -0.80023,-0.47349 0,0 z m 0.23508,0.33187 c 0.64163,1.02488 0.56801,2.30476 0.25582,1.43121 -0.008,-0.33436 -0.51916,-1.64404 -0.25582,-1.43121 z m 6.17424,0.4425 c 0.087,-0.18371 0.7169,0.80108 0.29731,0.62226 -0.34627,0.0848 -0.58845,-1.32342 -0.29731,-0.62226 z m 0.4909,0.96797 c 0.48906,1.05982 -0.47641,1.07335 -0.35249,0.005 -0.15419,-0.53015 0.17709,-0.24612 0.35249,-0.005 z m -14.6232,0.083 c 0.62044,0.52417 0.72464,1.34298 1.04284,2.05122 0.30243,0.49353 -0.66476,0.46644 0.22934,0.72132 -0.88611,-0.003 -0.11563,0.60853 -1.01982,0.27483 0.20916,-0.1218 -0.92875,-0.13543 -0.56619,-0.87139 -0.17489,-1.2453 -0.98016,-1.79788 -2.08081,-2.04461 0.83449,-0.0108 1.60511,-0.0508 2.39464,-0.13137 z m 8.50427,0.76746 c -0.27113,0.21722 -0.77622,1.14184 -0.32496,0.96106 -0.0932,-0.25036 0.30482,-1.84476 0.32496,-0.96106 z m 0.92648,-0.10371 c -0.0975,1.32163 -0.5158,2.83338 -1.40956,3.73533 -0.9713,0.91971 -2.116,-0.69387 -2.28383,-1.13208 0.51753,0.41999 0.66482,0.89748 1.35645,0.73624 -0.40016,1.03359 1.51917,-0.89373 0.46324,-0.44942 -0.81533,1.34389 0.38489,-1.25196 0.47707,-0.40101 -0.31598,0.0213 -0.20807,0.44288 0.28347,-0.0553 0.65565,0.29414 -0.44338,-0.67076 0.17458,-1.1486 0.2481,-0.4148 -0.24501,-1.55934 0.41642,-1.5064 0.2065,0.0559 0.69295,-0.16344 0.52216,0.22125 z m -11.65707,0.24891 c 0.34287,0.22819 1.54273,0.49738 0.76746,0.95414 -0.68008,0.48199 -1.79788,-1.42602 -0.76746,-0.95414 z m -0.59461,0.3457 c 0.99753,0.92896 -2.02487,1.00795 -0.50786,0.11592 0.30582,-0.2386 0.01,-0.90327 0.50786,-0.11592 z m 17.46487,-0.35953 c 0.4059,0.60358 -0.0223,1.60674 -0.15902,1.46578 -0.23282,0.72013 -0.56607,1.38614 -0.96105,1.94976 -0.15931,-0.19951 0.87478,-1.8285 0.76001,-2.67347 0.0745,-0.22087 -0.0992,-0.93684 0.36006,-0.74207 z m -6.30561,1.07168 c 0.0368,0.37901 -0.43757,1.22336 -0.33187,0.28347 -0.013,-0.10177 0.21516,-0.706 0.33187,-0.28347 z m -10.77208,0.38718 c 0.28791,0.81858 0.60898,2.16977 0.33188,2.75438 -0.15921,0.24011 -0.17799,-0.58652 -0.55312,-0.17544 -0.36292,-0.12429 -1.06752,-1.19003 -0.72598,-1.14082 0.27776,-0.47201 -0.84277,0.0811 -0.28607,-0.50818 -1.56953,-0.51992 0.16897,-1.34352 1.03279,-1.17884 l 0.0951,0.07 z m 1.32059,-0.0622 c 0.57046,0.70086 -0.11999,0.9006 -0.31805,1.40095 -0.44549,1.70509 -0.57534,-1.89409 -0.61729,-1.58374 0.31584,0.0166 0.64794,0.0376 0.93534,0.18279 z m 3.19429,0.22816 c 1.02338,0.21474 2.03941,0.97274 2.95229,1.36898 0.45447,0.24937 2.05019,1.15969 0.53126,1.1359 -1.09385,0.0996 -2.14714,-0.31657 -3.0618,-0.78328 -0.744,-0.19853 -1.36648,-0.99852 -0.90574,-1.61789 0.031,-0.13491 0.42741,-0.26217 0.48399,-0.10371 z m -6.66514,0.10371 c -0.75082,0.33258 0.98505,0.46127 0.61362,1.05007 0.65295,-0.051 0.2814,0.50994 0.86598,0.44419 -0.38137,0.84107 1.04156,1.02211 0.69832,1.61706 -0.8949,0.43195 -1.59272,-0.4081 -2.12347,-0.85993 -0.61851,-0.48433 -1.22264,-1.22081 -1.78731,-1.85318 -0.0659,-0.51319 1.59794,-0.38562 1.59458,-0.47599 z m 11.96821,2.79327 c -0.17814,0.67573 0.24614,1.68407 -1.02363,1.85071 -1.45116,0.4833 -2.11218,-0.96259 -2.49643,-1.57629 -0.51488,-0.42176 1.57754,-0.23137 0.25836,-0.0186 0.77095,0.22169 2.83673,-0.1348 2.55646,-0.23507 -0.28349,0.68084 0.94942,-0.67962 0.70524,-0.0208 z m -2.8555,2.44757 c 0.19187,0.73799 1.3773,2.42332 1.38275,1.84907 -0.53415,0.42562 -1.9851,1.42344 -1.38687,0.0468 0.12297,-0.49487 -0.78315,-2.67669 0.004,-1.89591 z m 2.59276,0.23508 c -0.27029,1.14749 -1.17588,1.71408 -1.75032,0.44478 -1.36735,-0.8451 0.83674,-1.08635 0.95521,-0.0853 0.23494,-0.0484 1.07339,-1.2812 0.79511,-0.35953 z m 0.26274,0.96797 c 0.11502,0.76113 0.35345,1.55558 -0.56728,0.77621 -0.91128,-0.046 0.30189,-0.97418 0.55064,-1.10895 l 0.01,0.14482 z m -0.69832,1.05093 c 1.02052,0.39416 1.01786,1.32889 -0.0691,0.86426 -0.58891,0.30712 -0.37355,-0.84028 -1.02328,-0.0761 -0.34374,-0.005 -0.4995,-0.29526 -0.25841,0.19705 0.55756,-0.23033 1.01332,0.59013 0.84578,0.12456 0.37298,-0.14866 1.83885,-0.16634 1.83254,0.74316 0.0366,0.23156 -0.9911,-0.80505 -0.2907,0.12403 0.66341,0.77865 -1.45379,0.96143 -0.14769,0.86154 0.44746,-0.35491 0.35452,-1.054 0.70977,-0.34862 0.18403,0.56592 -1.10059,0.94068 -0.009,0.55226 0.51632,-0.33295 -0.69977,1.04628 -1.1339,0.30422 -0.67113,-0.30033 -2.227,-1.57523 -1.85297,-1.18922 -0.69431,-0.43687 -0.83325,-0.31979 -1.00254,-1.17538 0.83695,-0.0412 1.5759,-1.71694 2.39918,-0.9818 z m 1.9221,-20.16134 c -0.70759,0.74437 -0.35171,-0.26791 0.18765,-0.15006 z m 2.44066,0.43558 c -0.7046,0.88594 0.0543,0.53045 0.0631,-0.18063 z m -1.53492,0.0899 c -0.53333,0.45486 -0.26566,1.29769 0.0346,0.33188 0.0421,0.008 0.10703,-0.73369 -0.0346,-0.33188 z m -1.90136,0 c 0.49691,0.27303 0.99932,-0.26102 0,0 z m -1.00254,0.22817 c -0.55321,0.17994 -1.21525,0.97014 -0.24202,0.27112 0.63891,-0.29389 1.57055,-0.76485 0.24202,-0.27112 z m 4.65315,0.25582 c -1.4162,0.81599 1.25159,-0.3841 0.2461,-0.11646 z m 2.29547,0.24199 c 0.0883,0.12402 0.0883,-0.12402 0,0 z m -2.87625,0.22816 c 0.11667,0.45489 2.11973,1.01833 0.84984,0.12682 -0.23344,-0.0552 -0.66268,-0.25021 -0.84984,-0.12682 z m 0.61535,0.23508 c 1.08311,0.46622 9.9e-4,-0.18806 -0.29265,-0.1157 l 0.12352,0.0466 z m -0.78128,0.11754 c 0.25158,0.49545 1.42348,0.60961 0.33533,0.191 -0.10964,-0.0245 -0.21912,-0.32161 -0.33533,-0.191 z m -1.05094,5.5174 c 0.70273,-0.0227 -0.11727,-0.009 -0.032,-0.019 z m 0.55313,0.13828 c 1.01252,0.0272 0.17982,-0.0744 0,0 z m 2.91772,0.885 c 0.0883,0.12402 0.0883,-0.12402 0,0 z m 0.48399,0.51855 c 0.27159,0.56775 0.5051,2.93052 0.38459,1.13423 0.091,-0.17719 -0.64074,-2.19662 -0.38459,-1.13423 z m -1.99816,-0.11062 c 0.61595,0.1753 1.18853,-0.13148 0,0 z m 1.58331,0.2489 c 1.29877,0.22494 -0.6,-0.22134 0,0 z m -2.64117,1.50035 c 0.71204,0.0565 0.30851,-0.0926 0,0 z m 1.24453,0.0691 c 0.51315,0.0555 0.27006,-0.0923 0,0 z m 0.76054,0.0691 c 1.01252,0.0272 0.17982,-0.0744 0,0 z m 1.47961,0.5393 c 0.0435,0.38826 0.0376,-0.43038 0,0 z m -3.67827,0.24199 c 0.0591,0.1875 0.0591,-0.1875 0,0 z m 0.40101,0.0484 c 1.01252,0.0272 0.17982,-0.0744 0,0 z m 3.17355,0.42175 c -0.13452,0.66822 -0.34065,1.70741 0.0233,0.45979 0.10293,-0.29438 0.0209,-1.28552 -0.0233,-0.45979 z m -3.03527,0.0622 c 0.71204,0.0565 0.30851,-0.0926 0,0 z m 2.71031,1.26527 c 0.0591,0.1875 0.0591,-0.1875 0,0 z m -3.56074,0.21434 c 0.81224,0.0948 3.05515,0.0781 2.67747,0.0938 -0.80552,-0.0265 -2.23478,-0.16978 -2.67747,-0.0938 z m 3.42245,0.0899 c -0.50804,1.12713 0.37656,-0.47433 0,0 z m -4.18299,0.94031 c 0.937,0.22673 0.70918,-0.18477 0,0 z m 1.48652,0.0691 c 0.76581,0.27517 1.38549,-0.23077 0,0 z m 1.59023,0.0346 c 0.0883,0.12402 0.0883,-0.12402 0,0 z m 0.13828,0 c 0.0883,0.12402 0.0883,-0.12402 0,0 z m -6.1051,-5.3653 c 0.38187,0.53656 2.65493,1.68056 1.22378,0.78129 -0.24816,-0.0697 -1.31332,-1.10432 -1.22378,-0.78129 z m 0.91957,0.40793 c 1.62478,1.41104 -0.0556,-0.34878 0,0 z m -0.11754,1.53492 c -43.163395,-16.71133 -43.163395,-16.71133 0,0 z m 0.46324,2.52362 c 0.0883,0.12402 0.0883,-0.12402 0,0 z m -0.82969,2.86933 c 0.237,0.74384 0.0802,-0.29455 0.0138,-0.11754 z m -0.0691,4.83292 c 1.19286,0.89874 -0.44963,1.44179 -0.78359,0.86467 0.73892,1.27971 2.11526,-0.4288 0.78359,-0.86467 z"
       id="path1-7"
       style="display:inline;fill:#1e1e1c;stroke-width:0px"
       inkscape:label="path1-7"
       sodipodi:nodetypes="ccccccccccccccccccccccccccccccccccccsccccccccccccccccccccccccccccccccccccccccccccccccccccccccscccssccccccccccccccccccccccccccccccccccscccccccccccccccssccccccccccccccccccccccccccccccccccsccccccccssccccccccccccccccccccccccccccccccccccccccsccccsscccccsccsscccccccccccccccccccccccccccccccccccccccccccccccccccccccccccccccccccccccccccccccccccccccccccccccccccccccccccccc" />
  </g>
</svg>
